<svg width="198" height="56" viewBox="0 0 198 56" fill="none" xmlns="http://www.w3.org/2000/svg">
<path fill-rule="evenodd" clip-rule="evenodd" d="M67.5698 16.7498L56.0603 39.2499H45.2495L50.0662 29.9249H49.8501C45.8763 35.0834 39.9473 38.4793 31.4994 39.2499V30.054C31.4994 30.054 36.9037 29.7348 40.0808 26.3946H31.4994V16.75H41.144V24.6825L41.3604 24.6816L45.3016 16.75H52.5955V24.6322L52.8119 24.6319L56.9009 16.7498H67.5698Z" fill="black"/>
<path d="M130.333 36.7664H133.439V18.9373H130.333V36.7664Z" fill="black"/>
<path fill-rule="evenodd" clip-rule="evenodd" d="M113.209 36.5844C113.884 36.865 114.57 37.0054 115.268 37.0054C116.421 37.0054 117.453 36.7247 118.363 36.1634C119.273 35.6021 119.979 34.8285 120.479 33.8423C120.98 32.8487 121.23 31.7222 121.23 30.4631C121.23 29.204 120.972 28.0776 120.457 27.0839C119.941 26.0903 119.224 25.3204 118.306 24.7742C117.388 24.2205 116.345 23.9474 115.177 23.955C114.434 23.955 113.721 24.0991 113.038 24.3874C112.356 24.6756 111.787 25.0852 111.332 25.6162C111.296 25.6566 111.262 25.6974 111.229 25.7387V18.9488H108.112V36.7665H111.206L111.2 35.102C111.28 35.2001 111.366 35.296 111.457 35.3897C111.95 35.898 112.534 36.2961 113.209 36.5844ZM116.395 33.7058C115.886 34.0168 115.306 34.1723 114.654 34.1723C114.009 34.1723 113.417 34.013 112.879 33.6945C112.34 33.3682 111.912 32.9246 111.593 32.3632C111.282 31.802 111.127 31.1647 111.127 30.4517C111.119 29.7387 111.271 29.1016 111.582 28.5403C111.9 27.9714 112.329 27.5314 112.868 27.2205C113.406 26.9019 114.002 26.7464 114.654 26.754C115.306 26.7464 115.886 26.8981 116.395 27.2091C116.91 27.5125 117.305 27.9486 117.578 28.5175C117.859 29.0788 117.999 29.7236 117.999 30.4517C117.999 31.18 117.859 31.8247 117.578 32.386C117.305 32.9473 116.91 33.3872 116.395 33.7058Z" fill="black"/>
<path d="M72.0697 20.0183H75.6195L78.7951 31.6153L82.1732 20.0183H85.1315L88.7951 31.3826L91.8444 20.0183H95.0984L90.297 36.7665H87.2363L83.5108 25.6644L80.0911 36.7665H76.9963L72.0697 20.0183Z" fill="black"/>
<path fill-rule="evenodd" clip-rule="evenodd" d="M100.341 37.0622C99.1045 37.0698 97.9895 36.7967 96.9958 36.2431C96.0097 35.6817 95.2323 34.9042 94.6633 33.9105C94.1021 32.9169 93.8215 31.7829 93.8215 30.5085C93.8215 29.2721 94.1097 28.1534 94.6862 27.1521C95.2626 26.1509 96.0438 25.3696 97.03 24.8083C98.0161 24.247 99.1159 23.9664 100.329 23.9664C101.695 23.9664 102.889 24.2698 103.914 24.8766C104.945 25.4834 105.715 26.3443 106.223 27.4593C106.739 28.5668 106.925 29.8373 106.781 31.2709H97.0348C97.0621 31.842 97.2046 32.3617 97.4623 32.8297C97.7506 33.3454 98.1526 33.7474 98.6683 34.0357C99.1842 34.3239 99.7606 34.468 100.398 34.468C100.883 34.4604 101.335 34.377 101.752 34.2178C102.169 34.0509 102.522 33.8272 102.81 33.5464C103.106 33.2658 103.314 32.9473 103.436 32.5908H106.69C106.493 33.463 106.098 34.2405 105.507 34.9232C104.915 35.5983 104.171 36.1254 103.276 36.5047C102.381 36.8839 101.403 37.0698 100.341 37.0622ZM97.4737 28.142C97.292 28.459 97.166 28.8003 97.0958 29.166H103.556C103.509 28.704 103.367 28.283 103.128 27.9031C102.855 27.4555 102.484 27.1104 102.013 26.8677C101.543 26.6174 101.012 26.4922 100.421 26.4922C99.791 26.4922 99.2184 26.6363 98.7025 26.9246C98.1867 27.2128 97.7771 27.6186 97.4737 28.142Z" fill="black"/>
<path d="M123.518 24.2281C123.518 23.2116 123.749 22.309 124.212 21.5201C124.674 20.7237 125.323 20.1055 126.157 19.6656C126.999 19.218 127.981 18.9867 129.104 18.9715V21.7363C128.581 21.7439 128.133 21.8539 127.761 22.0663C127.397 22.2711 127.117 22.5707 126.919 22.9651C126.738 23.3282 126.64 23.7492 126.626 24.2281H129.036V26.8563H126.624V36.7665H123.518V26.8563H121.515V24.2281H123.518Z" fill="black"/>
<path fill-rule="evenodd" clip-rule="evenodd" d="M141.335 37.0394C140.068 37.0394 138.934 36.7625 137.933 36.2089C136.939 35.6475 136.158 34.8739 135.589 33.8877C135.028 32.8941 134.747 31.7677 134.747 30.5085C134.747 29.2418 135.028 28.1116 135.589 27.1179C136.158 26.1167 136.939 25.3392 137.933 24.7855C138.934 24.2318 140.068 23.9549 141.335 23.9549C142.609 23.9549 143.747 24.2318 144.748 24.7855C145.757 25.3392 146.542 26.1129 147.103 27.1066C147.664 28.1002 147.949 29.2342 147.957 30.5085C147.949 31.7677 147.664 32.8941 147.103 33.8877C146.549 34.8739 145.768 35.6475 144.759 36.2089C143.751 36.7625 142.609 37.0394 141.335 37.0394ZM141.335 34.1836C142.002 34.1836 142.594 34.0319 143.11 33.7285C143.625 33.4175 144.024 32.9851 144.304 32.4314C144.585 31.8701 144.725 31.2291 144.725 30.5085C144.725 29.7803 144.585 29.1356 144.304 28.5743C144.024 28.013 143.625 27.5806 143.11 27.2772C142.594 26.9662 142.002 26.8107 141.335 26.8107C140.675 26.8107 140.087 26.9662 139.571 27.2772C139.063 27.5806 138.668 28.013 138.388 28.5743C138.107 29.1356 137.971 29.7803 137.978 30.5085C137.978 31.2291 138.119 31.8701 138.399 32.4314C138.687 32.9851 139.082 33.4175 139.582 33.7285C140.091 34.0319 140.675 34.1836 141.335 34.1836Z" fill="black"/>
<path d="M151.313 24.228H147.854L151.598 36.7664H154.624L157.086 28.7581L159.744 36.7664H162.725L166.48 24.228H163.351L161.221 32.0324L158.867 24.228H155.841L153.499 32.2043L151.313 24.228Z" fill="black"/>
</svg>
