<svg width="41" height="41" viewBox="0 0 41 41" fill="none" xmlns="http://www.w3.org/2000/svg">
<path d="M20.5 30.0666L17.5767 28.6822C16.4089 28.1259 15.4221 27.2507 14.7303 26.1577C14.0385 25.0647 13.6698 23.7984 13.6667 22.5049V13.6667H27.3333V22.5063C27.3302 23.7998 26.9615 25.0661 26.2697 26.1591C25.5778 27.2521 24.5911 28.1273 23.4233 28.6836L20.5 30.0666ZM16.4 16.4V22.5063C16.4021 23.282 16.6235 24.0414 17.0387 24.6968C17.4539 25.3521 18.046 25.8767 18.7466 26.2099L20.5 27.0408L22.2534 26.2113C22.9542 25.8779 23.5464 25.3531 23.9616 24.6976C24.3768 24.042 24.5981 23.2823 24.6 22.5063V16.4H16.4ZM4.264 22.7632C4.65476 22.4991 4.97053 22.1383 5.1806 21.716C5.39066 21.2937 5.48788 20.8242 5.46279 20.3533C5.43771 19.8823 5.29117 19.4258 5.03743 19.0282C4.7837 18.6306 4.43139 18.3054 4.01478 18.0843C3.59817 17.8632 3.13143 17.7536 2.65994 17.7663C2.18845 17.779 1.72827 17.9134 1.32413 18.1566C0.919985 18.3997 0.585646 18.7434 0.353617 19.154C0.121589 19.5646 -0.000231972 20.0283 3.31617e-07 20.5C3.31617e-07 21.5783 0.628667 22.5008 1.53613 22.9463C1.98997 26.546 3.46157 29.9415 5.77807 32.734C8.09458 35.5264 11.1598 37.5999 14.6138 38.7108L15.4529 36.1087C12.519 35.1662 9.91163 33.413 7.93197 31.0515C5.95231 28.6899 4.67979 25.8165 4.264 22.7632ZM38.7122 26.3876L36.11 25.5457C35.1678 28.4798 33.4147 31.0875 31.0531 33.0674C28.6916 35.0474 25.8181 36.3187 22.7646 36.7346C22.5003 36.3441 22.1395 36.0287 21.7173 35.8189C21.295 35.609 20.8257 35.512 20.3549 35.5372C19.8841 35.5624 19.4278 35.709 19.0303 35.9626C18.6329 36.2163 18.3078 36.5685 18.0868 36.9849C17.8657 37.4013 17.756 37.8679 17.7686 38.3392C17.7811 38.8105 17.9153 39.2706 18.1582 39.6747C18.4011 40.0788 18.7444 40.4133 19.1547 40.6455C19.5651 40.8777 20.0285 40.9998 20.5 41C21.5783 41 22.5008 40.3713 22.9463 39.4638C26.5459 39.0101 29.9412 37.5387 32.7337 35.2225C35.5261 32.9062 37.601 29.8413 38.7122 26.3876ZM39.4638 18.0537C39.01 14.4539 37.5384 11.0585 35.2219 8.26601C32.9054 5.47357 29.8402 3.40011 26.3862 2.28916L25.5471 4.8913C28.481 5.83373 31.0883 7.58699 33.068 9.94851C35.0477 12.31 36.3188 15.1834 36.7346 18.2368C36.3441 18.5011 36.0286 18.8619 35.8188 19.2842C35.609 19.7065 35.512 20.1759 35.5372 20.6468C35.5625 21.1177 35.7091 21.574 35.9629 21.9714C36.2167 22.3689 36.569 22.6939 36.9855 22.9149C37.4021 23.1359 37.8687 23.2454 38.3401 23.2328C38.8114 23.2201 39.2715 23.0857 39.6756 22.8426C40.0797 22.5995 40.414 22.2561 40.6461 21.8456C40.8781 21.4351 41 20.9715 41 20.5C40.9997 19.9892 40.8555 19.4889 40.5841 19.0563C40.3127 18.6236 39.9249 18.2762 39.4652 18.0537M20.5 3.2596e-08C19.4217 3.2596e-08 18.4992 0.628666 18.0537 1.53613C14.4541 1.98987 11.0587 3.46125 8.26631 5.77751C5.47388 8.09376 3.40033 11.1587 2.28917 14.6124L4.8913 15.4543C5.83352 12.5201 7.58668 9.91245 9.94821 7.93254C12.3097 5.95262 15.1833 4.68126 18.2368 4.26536C18.5011 4.65588 18.8619 4.97137 19.2842 5.18119C19.7065 5.391 20.1759 5.48799 20.6468 5.46274C21.1177 5.43749 21.574 5.29084 21.9714 5.03707C22.3689 4.78329 22.6939 4.43101 22.9149 4.01446C23.1359 3.59792 23.2454 3.13128 23.2328 2.6599C23.2201 2.18852 23.0857 1.72844 22.8426 1.32437C22.5995 0.920294 22.2561 0.585979 21.8456 0.353914C21.4351 0.121848 20.9715 -7.2782e-05 20.5 3.2596e-08Z" fill="#19059C"/>
</svg>
