<svg width="44" height="41" viewBox="0 0 44 41" fill="none" xmlns="http://www.w3.org/2000/svg">
<path d="M43.8275 29.6896V26.8621H40.8585C40.6747 25.9773 40.3229 25.136 39.8222 24.3837L41.9288 22.2771L39.9297 20.278L37.8231 22.3846C37.0707 21.8844 36.2293 21.5331 35.3447 21.3497V18.3793H32.517V21.3497C31.6324 21.5331 30.791 21.8844 30.0386 22.3846L27.9321 20.278L25.9329 22.2771L28.0395 24.3837C27.5388 25.136 27.187 25.9773 27.0032 26.8621H24.0342V29.6896H27.0032C27.187 30.5902 27.5461 31.4272 28.0381 32.168L25.9315 34.2746L27.9306 36.2737L30.0372 34.1671C30.79 34.668 31.6318 35.0198 32.517 35.2034V38.1724H35.3447V35.2034C36.2293 35.02 37.0707 34.6687 37.8231 34.1685L39.9297 36.2751L41.9288 34.276L39.8222 32.1694C40.3231 31.4167 40.6749 30.5749 40.8585 29.6896H43.8275ZM33.9309 32.5172C32.806 32.5172 31.7271 32.0704 30.9317 31.275C30.1363 30.4796 29.6894 29.4007 29.6894 28.2759C29.6894 27.151 30.1363 26.0722 30.9317 25.2767C31.7271 24.4813 32.806 24.0345 33.9309 24.0345C35.0558 24.0345 36.1346 24.4813 36.93 25.2767C37.7254 26.0722 38.1723 27.151 38.1723 28.2759C38.1723 29.4007 37.7254 30.4796 36.93 31.275C36.1346 32.0704 35.0558 32.5172 33.9309 32.5172Z" fill="#19059C"/>
<path d="M29.69 7.06896C29.69 3.17114 26.5189 0 22.621 0C20.1044 0 17.7589 1.35441 16.4992 3.53448C16.0489 4.318 15.747 5.17782 15.6085 6.07082C13.9413 4.88151 11.9446 4.24198 9.89668 4.24138C4.43937 4.24138 0 8.68069 0 14.1379C0.00179014 15.9498 0.500954 17.7264 1.44308 19.274C2.3852 20.8217 3.73412 22.081 5.34279 22.9147C3.81729 24.2126 2.82762 26.1212 2.82762 28.2758C2.82762 32.1737 5.9988 35.3448 9.89668 35.3448C10.9344 35.3448 11.9142 35.1073 12.8021 34.7029C13.1937 38.2332 16.1599 41 19.7934 41C20.7221 41.0025 21.6421 40.8208 22.5002 40.4656C23.3583 40.1103 24.1374 39.5884 24.7926 38.9302L22.7921 36.9297C22.3992 37.3248 21.9319 37.6381 21.4172 37.8514C20.9025 38.0647 20.3505 38.1738 19.7934 38.1724C17.4549 38.1724 15.5519 36.2694 15.5519 33.931C15.5519 31.5926 17.4549 29.6896 19.7934 29.6896V26.8621C18.7542 26.8621 17.7759 27.101 16.888 27.5039C16.6883 25.7206 15.818 24.08 14.4534 22.9147C16.0615 22.0807 17.4099 20.8212 18.3515 19.2735C19.2931 17.7259 19.7918 15.9495 19.7934 14.1379C19.7934 13.9301 19.7736 13.7265 19.7608 13.5215C20.6374 13.9117 21.6016 14.1379 22.621 14.1379C26.5189 14.1379 29.69 10.9668 29.69 7.06896ZM18.9451 4.94827C19.3187 4.30407 19.8548 3.76917 20.4998 3.39703C21.1449 3.02489 21.8763 2.82854 22.621 2.82758C24.9594 2.82758 26.8624 4.73055 26.8624 7.06896C26.8624 9.40737 24.9594 11.3103 22.621 11.3103C20.2825 11.3103 18.3795 9.40737 18.3795 7.06896H18.3371C18.388 6.25462 18.5803 5.58165 18.9451 4.94827ZM14.1381 28.2758C14.1381 30.6143 12.2351 32.5172 9.89668 32.5172C7.55824 32.5172 5.65525 30.6143 5.65525 28.2758C5.65525 25.9374 7.55824 24.0345 9.89668 24.0345C12.2351 24.0345 14.1381 25.9374 14.1381 28.2758ZM9.89668 21.2069C5.9988 21.2069 2.82762 18.0357 2.82762 14.1379C2.82762 10.2401 5.9988 7.06896 9.89668 7.06896C13.7946 7.06896 16.9657 10.2401 16.9657 14.1379C16.9657 18.0357 13.7946 21.2069 9.89668 21.2069Z" fill="#19059C"/>
</svg>
