<svg width="176" height="42" viewBox="0 0 176 42" fill="none" xmlns="http://www.w3.org/2000/svg">
<path d="M73.4116 3.02915C74.6489 2.84419 75.8985 2.75216 77.149 2.75393C79.6746 2.75393 81.4733 3.3433 82.6648 4.46009C83.8563 5.57688 84.5832 7.16269 84.5832 9.37592C84.5832 11.5892 83.895 13.4404 82.6252 14.6997C81.3545 15.9581 79.2504 16.6705 76.6078 16.6705C75.5412 16.6767 74.4755 16.6227 73.4151 16.5076L73.4116 3.02915ZM75.1699 15.1316C75.7586 15.213 76.3535 15.2466 76.9475 15.2316C80.7042 15.2316 82.7449 13.1192 82.7449 9.42194C82.7651 6.19015 80.9462 4.13974 77.2291 4.13974C76.5374 4.12913 75.8457 4.1893 75.1655 4.32116L75.1699 15.1316Z" fill="#294A9E"/>
<path d="M88.785 3.94417C88.8053 4.55478 88.3617 5.04238 87.6533 5.04238C87.069 5.05034 86.5894 4.58044 86.5815 3.99372C86.5815 3.9778 86.5815 3.96098 86.5824 3.94505C86.5683 3.34241 87.0417 2.84242 87.641 2.82826C87.6586 2.82826 87.6771 2.82826 87.6947 2.82826C88.2764 2.80702 88.7648 3.26454 88.7859 3.84948C88.7868 3.87957 88.7868 3.91231 88.785 3.94417ZM86.8059 16.5413V6.70695H88.5835V16.5413H86.8059Z" fill="#294A9E"/>
<path d="M99.9577 6.70694C99.9181 7.41755 99.8768 8.21134 99.8768 9.40954V15.1147C99.8768 17.3625 99.4333 18.7456 98.4837 19.6102C97.5333 20.504 96.1597 20.7881 94.9268 20.7881C93.7555 20.7881 92.4628 20.5049 91.6743 19.9757L92.1196 18.6147C92.9882 19.1306 93.9817 19.3978 94.991 19.3855C96.8082 19.3855 98.1423 18.4297 98.1423 15.9519V14.8572H98.1009C97.5562 15.7723 96.5055 16.5032 94.991 16.5032C92.5666 16.5032 90.8286 14.428 90.8286 11.7086C90.8286 8.37682 92.9899 6.48748 95.2339 6.48748C96.9305 6.48748 97.8589 7.38126 98.284 8.19364H98.3236L98.4045 6.71048L99.9577 6.70694ZM98.1194 10.5883C98.1291 10.314 98.0957 10.0396 98.0182 9.77591C97.6953 8.73876 96.8267 7.88657 95.534 7.88657C93.8374 7.88657 92.6247 9.32813 92.6247 11.6042C92.6247 13.5334 93.5945 15.1395 95.5129 15.1395C96.6428 15.1324 97.6389 14.3935 97.9786 13.3104C98.0745 13.0015 98.1229 12.6794 98.1194 12.3564V10.5883Z" fill="#294A9E"/>
<path d="M104.685 3.94418C104.705 4.55478 104.26 5.04238 103.553 5.04238C102.969 5.05035 102.489 4.58045 102.481 3.99373C102.481 3.9778 102.481 3.96099 102.482 3.94506C102.467 3.3433 102.939 2.84331 103.537 2.82827C103.553 2.82827 103.57 2.82738 103.586 2.82827C104.168 2.80349 104.66 3.25835 104.685 3.84418C104.688 3.87603 104.687 3.90966 104.685 3.94418ZM102.705 16.5413V6.70695H104.483V16.5413H102.705Z" fill="#294A9E"/>
<path d="M109.573 3.88311V6.70606H112.12V8.06709H109.573V13.3696C109.573 14.5802 109.917 15.2714 110.907 15.2714C111.255 15.2767 111.602 15.236 111.939 15.1501L112.011 16.4988C111.505 16.6767 110.972 16.759 110.436 16.7421C109.607 16.7421 108.94 16.4775 108.516 15.9899C108.012 15.4714 107.828 14.5882 107.828 13.4307V8.0724H106.314V6.70694H107.828V4.35035L109.573 3.88311Z" fill="#294A9E"/>
<path d="M119.533 16.5413L119.392 15.3015H119.332C118.627 16.243 117.514 16.7846 116.342 16.759C114.361 16.759 113.352 15.3572 113.352 13.9342C113.352 11.5723 115.45 10.2635 119.232 10.283V10.0803C119.232 9.26795 119.01 7.80515 117.011 7.80515C116.112 7.8078 115.23 8.0609 114.464 8.53611L114.06 7.35737C114.868 6.8388 116.039 6.49279 117.272 6.49279C120.263 6.49279 120.989 8.54496 120.989 10.5157V14.1829C120.977 14.9723 121.031 15.7607 121.151 16.5413H119.533ZM119.272 11.5272C117.332 11.4874 115.13 11.8316 115.13 13.7422C115.13 14.9006 115.896 15.4484 116.806 15.4484C117.866 15.4767 118.823 14.8103 119.17 13.8024C119.232 13.6192 119.266 13.4272 119.271 13.2334V11.5272H119.272Z" fill="#294A9E"/>
<path d="M123.857 2.11412H125.635V16.5404H123.857V2.11412Z" fill="#294A9E"/>
<path d="M132.968 3.02915C134.205 2.84419 135.455 2.75216 136.705 2.75393C139.231 2.75393 141.03 3.3433 142.221 4.46009C143.413 5.57688 144.14 7.16269 144.14 9.37592C144.14 11.5892 143.452 13.4404 142.18 14.6997C140.907 15.9581 138.807 16.6705 136.162 16.6705C135.096 16.6767 134.03 16.6227 132.97 16.5076L132.968 3.02915ZM134.725 15.1316C135.314 15.213 135.909 15.2466 136.504 15.2316C140.261 15.2316 142.301 13.1192 142.301 9.42194C142.322 6.19015 140.503 4.13974 136.785 4.13974C136.094 4.12913 135.402 4.19019 134.722 4.32116L134.725 15.1316Z" fill="#294A9E"/>
<path d="M151.777 16.5413L151.636 15.3015H151.575C150.869 16.243 149.757 16.7846 148.584 16.759C146.605 16.759 145.594 15.3572 145.594 13.9342C145.594 11.5591 147.695 10.2582 151.474 10.2777V10.0803C151.474 9.26795 151.251 7.80515 149.252 7.80515C148.352 7.8078 147.47 8.0609 146.705 8.53611L146.301 7.35737C147.109 6.8388 148.282 6.49279 149.515 6.49279C152.505 6.49279 153.232 8.54496 153.232 10.5157V14.1829C153.219 14.9723 153.272 15.7616 153.394 16.5413H151.777ZM151.514 11.5272C149.574 11.4874 147.372 11.8316 147.372 13.7422C147.372 14.9006 148.14 15.4484 149.048 15.4484C150.109 15.4776 151.066 14.8112 151.412 13.8024C151.475 13.6192 151.51 13.4272 151.513 13.2334V11.5272H151.514Z" fill="#294A9E"/>
<path d="M158.161 3.88311V6.70606H160.706V8.06709H158.161V13.3696C158.161 14.5802 158.505 15.2714 159.493 15.2714C159.841 15.2767 160.187 15.236 160.525 15.1501L160.605 16.4899C160.099 16.6678 159.564 16.7501 159.029 16.7333C158.2 16.7333 157.534 16.4687 157.11 15.9811C156.605 15.4625 156.422 14.5794 156.422 13.4219V8.06355H154.907V6.70694H156.422V4.35035L158.161 3.88311Z" fill="#294A9E"/>
<path d="M168.12 16.5413L167.98 15.3015H167.918C167.212 16.243 166.1 16.7846 164.928 16.759C162.949 16.759 161.938 15.3572 161.938 13.9342C161.938 11.5591 164.038 10.2582 167.818 10.2777V10.0803C167.818 9.26795 167.594 7.80515 165.595 7.80515C164.696 7.8078 163.814 8.0609 163.048 8.53611L162.644 7.35737C163.452 6.8388 164.625 6.49279 165.858 6.49279C168.848 6.49279 169.575 8.54496 169.575 10.5157V14.1829C169.562 14.9723 169.616 15.7616 169.737 16.5413H168.12ZM167.857 11.5272C165.918 11.4874 163.715 11.8316 163.715 13.7422C163.715 14.9006 164.483 15.4484 165.393 15.4484C166.454 15.4767 167.409 14.8103 167.755 13.8024C167.819 13.6192 167.853 13.4272 167.856 13.2334V11.5272H167.857Z" fill="#294A9E"/>
<path d="M82.928 36.4099C82.2812 36.7347 80.9885 37.0603 79.3315 37.0603C75.4938 37.0603 72.6039 34.6223 72.6039 30.1321C72.6039 25.8446 75.4938 22.9394 79.7169 22.9394C81.4136 22.9394 82.4836 23.304 82.9491 23.5482L82.5241 24.9915C81.66 24.5995 80.721 24.4048 79.7732 24.4225C76.5806 24.4225 74.4589 26.4729 74.4589 30.0693C74.4589 33.4215 76.3791 35.5763 79.6923 35.5763C80.7632 35.5763 81.8536 35.3533 82.5602 35.0073L82.928 36.4099Z" fill="#294A9E"/>
<path d="M93.6953 31.8578C93.6953 35.4887 91.1899 37.0789 88.8263 37.0789C86.1801 37.0789 84.1394 35.1285 84.1394 32.0197C84.1394 28.7348 86.2795 26.8004 88.9882 26.8004C91.7954 26.8004 93.6953 28.8508 93.6953 31.8578ZM85.9381 31.9595C85.9381 34.1135 87.1692 35.7391 88.9072 35.7391C90.6038 35.7391 91.8763 34.1347 91.8763 31.9197C91.8763 30.2534 91.0491 28.1401 88.9539 28.1401C86.8586 28.1401 85.9381 30.0906 85.9381 31.9595Z" fill="#294A9E"/>
<path d="M95.9377 29.6844C95.9377 28.6693 95.9174 27.8357 95.8567 27.0234H97.4337L97.5331 28.649H97.5692C98.0541 27.7136 99.1857 26.8004 100.801 26.8004C102.155 26.8004 104.255 27.6127 104.255 30.9843V36.863H102.483V31.1888C102.483 29.603 101.899 28.2826 100.221 28.2826C98.8056 28.3401 97.695 29.5215 97.7153 30.9454V36.8568H95.9377V29.6844Z" fill="#294A9E"/>
<path d="M106.909 35.0285C107.615 35.4719 108.428 35.7179 109.261 35.7391C110.554 35.7391 111.152 35.0887 111.152 34.2763C111.152 33.4224 110.647 32.9551 109.335 32.4675C107.576 31.8383 106.756 30.8631 106.756 29.6835C106.756 28.0994 108.028 26.7995 110.129 26.7995C110.97 26.7897 111.799 26.9995 112.536 27.4083L112.092 28.7083C111.49 28.3357 110.798 28.1393 110.091 28.1393C109.04 28.1393 108.456 28.7499 108.456 29.4808C108.456 30.2932 109.04 30.6587 110.314 31.1454C112.011 31.7958 112.88 32.6498 112.88 34.1126C112.88 35.8418 111.546 37.0515 109.222 37.0515C108.263 37.0692 107.315 36.8382 106.471 36.3807L106.909 35.0285Z" fill="#294A9E"/>
<path d="M123.333 34.1745C123.333 35.1913 123.353 36.0851 123.414 36.8559H121.837L121.736 35.2515H121.696C121.025 36.4019 119.79 37.1001 118.464 37.0789C116.928 37.0789 115.089 36.2267 115.089 32.7719V27.0234H116.869V32.4675C116.869 34.3365 117.434 35.5966 119.05 35.5966C120.085 35.5763 121.008 34.9356 121.394 33.9701C121.501 33.6781 121.555 33.3684 121.555 33.0569V27.0225H123.333V34.1745Z" fill="#294A9E"/>
<path d="M126.281 22.4314H128.059V36.8559H126.281V22.4314Z" fill="#294A9E"/>
<path d="M133.191 24.1933V27.0181H135.738V28.3791H133.193V33.6816C133.193 34.9002 133.537 35.5922 134.525 35.5922C134.873 35.5966 135.22 35.5559 135.557 35.4692L135.638 36.8108C135.132 36.9887 134.597 37.071 134.061 37.0541C133.232 37.0541 132.567 36.7895 132.142 36.3019C131.637 35.7727 131.454 34.9002 131.454 33.7409V28.3809H129.94V27.0198H131.454V24.665L133.191 24.1933Z" fill="#294A9E"/>
<path d="M143.151 36.8559L143.011 35.6161H142.949C142.245 36.5603 141.132 37.1046 139.959 37.0789C137.98 37.0789 136.969 35.6781 136.969 34.256C136.969 31.879 139.069 30.5782 142.849 30.5994V30.395C142.849 29.5826 142.625 28.1198 140.626 28.1198C139.726 28.1233 138.846 28.3764 138.079 28.8508L137.675 27.6729C138.483 27.1437 139.656 26.8083 140.889 26.8083C143.879 26.8083 144.606 28.8587 144.606 30.8295V34.5073C144.593 35.2958 144.647 36.0842 144.768 36.8639L143.151 36.8559ZM142.888 31.8418C140.949 31.8003 138.746 32.1463 138.746 34.048C138.746 35.2046 139.514 35.7542 140.423 35.7542C141.482 35.7842 142.439 35.1197 142.786 34.1135C142.85 33.9303 142.884 33.7383 142.887 33.5445L142.888 31.8418Z" fill="#294A9E"/>
<path d="M147.473 29.6844C147.473 28.6693 147.454 27.8357 147.392 27.0234H148.975L149.076 28.649H149.116C149.601 27.7136 150.732 26.8004 152.348 26.8004C153.703 26.8004 155.804 27.6127 155.804 30.9843V36.863H154.019V31.1888C154.019 29.603 153.433 28.2826 151.755 28.2826C150.34 28.3401 149.229 29.5215 149.25 30.9454V36.8568H147.472V29.6844H147.473Z" fill="#294A9E"/>
<path d="M165.653 36.4913C165.189 36.7347 164.157 37.0603 162.844 37.0603C159.895 37.0603 157.975 35.048 157.975 32.0463C157.975 29.0446 160.039 26.8251 163.23 26.8251C164.078 26.8154 164.917 26.9888 165.694 27.3331L165.29 28.7162C164.866 28.4729 164.199 28.249 163.227 28.249C160.992 28.249 159.771 29.9136 159.771 31.9666C159.771 34.2418 161.226 35.6444 163.165 35.6444C163.92 35.648 164.667 35.4807 165.349 35.1568L165.653 36.4913Z" fill="#294A9E"/>
<path d="M168.748 27.0234L170.888 32.8374C171.11 33.4896 171.353 34.2604 171.514 34.8498H171.555C171.737 34.2604 171.939 33.5082 172.181 32.7976L174.12 27.0278H176L173.334 34.0374C172.061 37.409 171.192 39.1364 169.979 40.1921C169.365 40.7629 168.612 41.162 167.798 41.3505L167.354 39.8461C167.92 39.6594 168.445 39.3665 168.901 38.9815C169.547 38.4444 170.059 37.763 170.397 36.9913C170.468 36.8586 170.517 36.7134 170.538 36.5639C170.522 36.4028 170.482 36.2453 170.417 36.0966L166.807 27.0349L168.748 27.0234Z" fill="#294A9E"/>
<path d="M73.4116 3.02915C74.6489 2.84419 75.8985 2.75216 77.149 2.75393C79.6746 2.75393 81.4733 3.3433 82.6648 4.46009C83.8563 5.57688 84.5832 7.16269 84.5832 9.37592C84.5832 11.5892 83.895 13.4404 82.6252 14.6997C81.3545 15.9581 79.2504 16.6705 76.6078 16.6705C75.5412 16.6767 74.4755 16.6227 73.4151 16.5076L73.4116 3.02915ZM75.1699 15.1316C75.7586 15.213 76.3535 15.2466 76.9475 15.2316C80.7042 15.2316 82.7449 13.1192 82.7449 9.42194C82.7651 6.19015 80.9462 4.13974 77.2291 4.13974C76.5374 4.12913 75.8457 4.1893 75.1655 4.32116L75.1699 15.1316Z" fill="#2986C7"/>
<path d="M88.785 3.94417C88.8053 4.55478 88.3617 5.04238 87.6533 5.04238C87.069 5.05034 86.5894 4.58044 86.5815 3.99372C86.5815 3.9778 86.5815 3.96098 86.5824 3.94505C86.5683 3.34241 87.0417 2.84242 87.641 2.82826C87.6586 2.82826 87.6771 2.82826 87.6947 2.82826C88.2764 2.80702 88.7648 3.26454 88.7859 3.84948C88.7868 3.87957 88.7868 3.91231 88.785 3.94417ZM86.8059 16.5413V6.70695H88.5835V16.5413H86.8059Z" fill="#2986C7"/>
<path d="M99.9577 6.70694C99.9181 7.41755 99.8768 8.21134 99.8768 9.40954V15.1147C99.8768 17.3625 99.4333 18.7456 98.4837 19.6102C97.5333 20.504 96.1597 20.7881 94.9268 20.7881C93.7555 20.7881 92.4628 20.5049 91.6743 19.9757L92.1196 18.6147C92.9882 19.1306 93.9817 19.3978 94.991 19.3855C96.8082 19.3855 98.1423 18.4297 98.1423 15.9519V14.8572H98.1009C97.5562 15.7723 96.5055 16.5032 94.991 16.5032C92.5666 16.5032 90.8286 14.428 90.8286 11.7086C90.8286 8.37682 92.9899 6.48748 95.2339 6.48748C96.9305 6.48748 97.8589 7.38126 98.284 8.19364H98.3236L98.4045 6.71048L99.9577 6.70694ZM98.1194 10.5883C98.1291 10.314 98.0957 10.0396 98.0182 9.77591C97.6953 8.73876 96.8267 7.88657 95.534 7.88657C93.8374 7.88657 92.6247 9.32813 92.6247 11.6042C92.6247 13.5334 93.5945 15.1395 95.5129 15.1395C96.6428 15.1324 97.6389 14.3935 97.9786 13.3104C98.0745 13.0015 98.1229 12.6794 98.1194 12.3564V10.5883Z" fill="#2986C7"/>
<path d="M104.685 3.94418C104.705 4.55478 104.26 5.04238 103.553 5.04238C102.969 5.05035 102.489 4.58045 102.481 3.99373C102.481 3.9778 102.481 3.96099 102.482 3.94506C102.467 3.3433 102.939 2.84331 103.537 2.82827C103.553 2.82827 103.57 2.82738 103.586 2.82827C104.168 2.80349 104.66 3.25835 104.685 3.84418C104.688 3.87603 104.687 3.90966 104.685 3.94418ZM102.705 16.5413V6.70695H104.483V16.5413H102.705Z" fill="#2986C7"/>
<path d="M109.573 3.88311V6.70606H112.12V8.06709H109.573V13.3696C109.573 14.5802 109.917 15.2714 110.907 15.2714C111.255 15.2767 111.602 15.236 111.939 15.1501L112.011 16.4988C111.505 16.6767 110.972 16.759 110.436 16.7421C109.607 16.7421 108.94 16.4775 108.516 15.9899C108.012 15.4714 107.828 14.5882 107.828 13.4307V8.0724H106.314V6.70694H107.828V4.35035L109.573 3.88311Z" fill="#2986C7"/>
<path d="M119.533 16.5413L119.392 15.3015H119.332C118.627 16.243 117.514 16.7846 116.342 16.759C114.361 16.759 113.352 15.3572 113.352 13.9342C113.352 11.5723 115.45 10.2635 119.232 10.283V10.0803C119.232 9.26795 119.01 7.80515 117.011 7.80515C116.112 7.8078 115.23 8.0609 114.464 8.53611L114.06 7.35737C114.868 6.8388 116.039 6.49279 117.272 6.49279C120.263 6.49279 120.989 8.54496 120.989 10.5157V14.1829C120.977 14.9723 121.031 15.7607 121.151 16.5413H119.533ZM119.272 11.5272C117.332 11.4874 115.13 11.8316 115.13 13.7422C115.13 14.9006 115.896 15.4484 116.806 15.4484C117.866 15.4767 118.823 14.8103 119.17 13.8024C119.232 13.6192 119.266 13.4272 119.271 13.2334V11.5272H119.272Z" fill="#2986C7"/>
<path d="M123.857 2.11412H125.635V16.5404H123.857V2.11412Z" fill="#2986C7"/>
<path d="M132.968 3.02915C134.205 2.84419 135.455 2.75216 136.705 2.75393C139.231 2.75393 141.03 3.3433 142.221 4.46009C143.413 5.57688 144.14 7.16269 144.14 9.37592C144.14 11.5892 143.452 13.4404 142.18 14.6997C140.907 15.9581 138.807 16.6705 136.162 16.6705C135.096 16.6767 134.03 16.6227 132.97 16.5076L132.968 3.02915ZM134.725 15.1316C135.314 15.213 135.909 15.2466 136.504 15.2316C140.261 15.2316 142.301 13.1192 142.301 9.42194C142.322 6.19015 140.503 4.13974 136.785 4.13974C136.094 4.12913 135.402 4.19019 134.722 4.32116L134.725 15.1316Z" fill="#2986C7"/>
<path d="M151.777 16.5413L151.636 15.3015H151.575C150.869 16.243 149.757 16.7846 148.584 16.759C146.605 16.759 145.594 15.3572 145.594 13.9342C145.594 11.5591 147.695 10.2582 151.474 10.2777V10.0803C151.474 9.26795 151.251 7.80515 149.252 7.80515C148.352 7.8078 147.47 8.0609 146.705 8.53611L146.301 7.35737C147.109 6.8388 148.282 6.49279 149.515 6.49279C152.505 6.49279 153.232 8.54496 153.232 10.5157V14.1829C153.219 14.9723 153.272 15.7616 153.394 16.5413H151.777ZM151.514 11.5272C149.574 11.4874 147.372 11.8316 147.372 13.7422C147.372 14.9006 148.14 15.4484 149.048 15.4484C150.109 15.4776 151.066 14.8112 151.412 13.8024C151.475 13.6192 151.51 13.4272 151.513 13.2334V11.5272H151.514Z" fill="#2986C7"/>
<path d="M158.161 3.88311V6.70606H160.706V8.06709H158.161V13.3696C158.161 14.5802 158.505 15.2714 159.493 15.2714C159.841 15.2767 160.187 15.236 160.525 15.1501L160.605 16.4899C160.099 16.6678 159.564 16.7501 159.029 16.7333C158.2 16.7333 157.534 16.4687 157.11 15.9811C156.605 15.4625 156.422 14.5794 156.422 13.4219V8.06355H154.907V6.70694H156.422V4.35035L158.161 3.88311Z" fill="#2986C7"/>
<path d="M168.12 16.5413L167.98 15.3015H167.918C167.212 16.243 166.1 16.7846 164.928 16.759C162.949 16.759 161.938 15.3572 161.938 13.9342C161.938 11.5591 164.038 10.2582 167.818 10.2777V10.0803C167.818 9.26795 167.594 7.80515 165.595 7.80515C164.696 7.8078 163.814 8.0609 163.048 8.53611L162.644 7.35737C163.452 6.8388 164.625 6.49279 165.858 6.49279C168.848 6.49279 169.575 8.54496 169.575 10.5157V14.1829C169.562 14.9723 169.616 15.7616 169.737 16.5413H168.12ZM167.857 11.5272C165.918 11.4874 163.715 11.8316 163.715 13.7422C163.715 14.9006 164.483 15.4484 165.393 15.4484C166.454 15.4767 167.409 14.8103 167.755 13.8024C167.819 13.6192 167.853 13.4272 167.856 13.2334V11.5272H167.857Z" fill="#2986C7"/>
<path d="M82.928 36.4099C82.2812 36.7347 80.9885 37.0603 79.3315 37.0603C75.4938 37.0603 72.6039 34.6223 72.6039 30.1321C72.6039 25.8446 75.4938 22.9394 79.7169 22.9394C81.4136 22.9394 82.4836 23.304 82.9491 23.5482L82.5241 24.9915C81.66 24.5995 80.721 24.4048 79.7732 24.4225C76.5806 24.4225 74.4589 26.4729 74.4589 30.0693C74.4589 33.4215 76.3791 35.5763 79.6923 35.5763C80.7632 35.5763 81.8536 35.3533 82.5602 35.0073L82.928 36.4099Z" fill="#2986C7"/>
<path d="M93.6953 31.8578C93.6953 35.4887 91.1899 37.0789 88.8263 37.0789C86.1801 37.0789 84.1394 35.1285 84.1394 32.0197C84.1394 28.7348 86.2795 26.8004 88.9882 26.8004C91.7954 26.8004 93.6953 28.8508 93.6953 31.8578ZM85.9381 31.9595C85.9381 34.1135 87.1692 35.7391 88.9072 35.7391C90.6038 35.7391 91.8763 34.1347 91.8763 31.9197C91.8763 30.2534 91.0491 28.1401 88.9539 28.1401C86.8586 28.1401 85.9381 30.0906 85.9381 31.9595Z" fill="#2986C7"/>
<path d="M95.9377 29.6844C95.9377 28.6693 95.9174 27.8357 95.8567 27.0234H97.4337L97.5331 28.649H97.5692C98.0541 27.7136 99.1857 26.8004 100.801 26.8004C102.155 26.8004 104.255 27.6127 104.255 30.9843V36.863H102.483V31.1888C102.483 29.603 101.899 28.2826 100.221 28.2826C98.8056 28.3401 97.695 29.5215 97.7153 30.9454V36.8568H95.9377V29.6844Z" fill="#2986C7"/>
<path d="M106.909 35.0285C107.615 35.4719 108.428 35.7179 109.261 35.7391C110.554 35.7391 111.152 35.0887 111.152 34.2763C111.152 33.4224 110.647 32.9551 109.335 32.4675C107.576 31.8383 106.756 30.8631 106.756 29.6835C106.756 28.0994 108.028 26.7995 110.129 26.7995C110.97 26.7897 111.799 26.9995 112.536 27.4083L112.092 28.7083C111.49 28.3357 110.798 28.1393 110.091 28.1393C109.04 28.1393 108.456 28.7499 108.456 29.4808C108.456 30.2932 109.04 30.6587 110.314 31.1454C112.011 31.7958 112.88 32.6498 112.88 34.1126C112.88 35.8418 111.546 37.0515 109.222 37.0515C108.263 37.0692 107.315 36.8382 106.471 36.3807L106.909 35.0285Z" fill="#2986C7"/>
<path d="M123.333 34.1745C123.333 35.1913 123.353 36.0851 123.414 36.8559H121.837L121.736 35.2515H121.696C121.025 36.4019 119.79 37.1001 118.464 37.0789C116.928 37.0789 115.089 36.2267 115.089 32.7719V27.0234H116.869V32.4675C116.869 34.3365 117.434 35.5966 119.05 35.5966C120.085 35.5763 121.008 34.9356 121.394 33.9701C121.501 33.6781 121.555 33.3684 121.555 33.0569V27.0225H123.333V34.1745Z" fill="#2986C7"/>
<path d="M126.281 22.4314H128.059V36.8559H126.281V22.4314Z" fill="#2986C7"/>
<path d="M133.191 24.1933V27.0181H135.738V28.3791H133.193V33.6816C133.193 34.9002 133.537 35.5922 134.525 35.5922C134.873 35.5966 135.22 35.5559 135.557 35.4692L135.638 36.8108C135.132 36.9887 134.597 37.071 134.061 37.0541C133.232 37.0541 132.567 36.7895 132.142 36.3019C131.637 35.7727 131.454 34.9002 131.454 33.7409V28.3809H129.94V27.0198H131.454V24.665L133.191 24.1933Z" fill="#2986C7"/>
<path d="M143.151 36.8559L143.011 35.6161H142.949C142.245 36.5603 141.132 37.1046 139.959 37.0789C137.98 37.0789 136.969 35.6781 136.969 34.256C136.969 31.879 139.069 30.5782 142.849 30.5994V30.395C142.849 29.5826 142.625 28.1198 140.626 28.1198C139.726 28.1233 138.846 28.3764 138.079 28.8508L137.675 27.6729C138.483 27.1437 139.656 26.8083 140.889 26.8083C143.879 26.8083 144.606 28.8587 144.606 30.8295V34.5073C144.593 35.2958 144.647 36.0842 144.768 36.8639L143.151 36.8559ZM142.888 31.8418C140.949 31.8003 138.746 32.1463 138.746 34.048C138.746 35.2046 139.514 35.7542 140.423 35.7542C141.482 35.7842 142.439 35.1197 142.786 34.1135C142.85 33.9303 142.884 33.7383 142.887 33.5445L142.888 31.8418Z" fill="#2986C7"/>
<path d="M147.473 29.6844C147.473 28.6693 147.454 27.8357 147.392 27.0234H148.975L149.076 28.649H149.116C149.601 27.7136 150.732 26.8004 152.348 26.8004C153.703 26.8004 155.804 27.6127 155.804 30.9843V36.863H154.019V31.1888C154.019 29.603 153.433 28.2826 151.755 28.2826C150.34 28.3401 149.229 29.5215 149.25 30.9454V36.8568H147.472V29.6844H147.473Z" fill="#2986C7"/>
<path d="M165.653 36.4913C165.189 36.7347 164.157 37.0603 162.844 37.0603C159.895 37.0603 157.975 35.048 157.975 32.0463C157.975 29.0446 160.039 26.8251 163.23 26.8251C164.078 26.8154 164.917 26.9888 165.694 27.3331L165.29 28.7162C164.866 28.4729 164.199 28.249 163.227 28.249C160.992 28.249 159.771 29.9136 159.771 31.9666C159.771 34.2418 161.226 35.6444 163.165 35.6444C163.92 35.648 164.667 35.4807 165.349 35.1568L165.653 36.4913Z" fill="#2986C7"/>
<path d="M168.748 27.0234L170.888 32.8374C171.11 33.4896 171.353 34.2604 171.514 34.8498H171.555C171.737 34.2604 171.939 33.5082 172.181 32.7976L174.12 27.0278H176L173.334 34.0374C172.061 37.409 171.192 39.1364 169.979 40.1921C169.365 40.7629 168.612 41.162 167.798 41.3505L167.354 39.8461C167.92 39.6594 168.445 39.3665 168.901 38.9815C169.547 38.4444 170.059 37.763 170.397 36.9913C170.468 36.8586 170.517 36.7134 170.538 36.5639C170.522 36.4028 170.482 36.2453 170.417 36.0966L166.807 27.0349L168.748 27.0234Z" fill="#2986C7"/>
<path d="M43.2909 25.1145C38.5319 25.1137 34.6748 21.2332 34.6748 16.4475C34.6757 11.6617 38.5345 7.78303 43.2935 7.78303C46.781 7.78392 49.9243 9.89803 51.2558 13.1396H58.6574C57.1729 5.51051 50.5262 0.00442469 42.7955 0H30.5248L27.8047 8.5724V8.52727H15.6651C7.06135 8.47948 0.0477627 15.4546 0.000242719 24.1066C-0.0472772 32.7586 6.88887 39.8116 15.4926 39.8594H25.91L28.0317 32.5303H42.9539C50.4699 32.4489 56.9397 27.1729 58.5721 19.7952H51.2408C49.8988 23.0172 46.7651 25.1145 43.2909 25.1145ZM20.8606 31.8684H15.7575C11.5432 31.8339 8.15519 28.3702 8.19039 24.1323C8.22295 20.1173 11.3285 16.8067 15.3122 16.5395H25.3002L20.8606 31.8684Z" fill="url(#paint0_linear_159_811)"/>
<defs>
<linearGradient id="paint0_linear_159_811" x1="0.0847226" y1="19.9296" x2="58.6578" y2="19.9296" gradientUnits="userSpaceOnUse">
<stop stop-color="#3F92CF"/>
<stop offset="1" stop-color="#294A9E"/>
</linearGradient>
</defs>
</svg>
