<svg width="198" height="56" viewBox="0 0 198 56" fill="none" xmlns="http://www.w3.org/2000/svg">
<path fill-rule="evenodd" clip-rule="evenodd" d="M64.552 19.2356L64.8031 19.684C65.1194 20.229 65.2864 20.8477 65.2875 21.4777V35.3793C65.2823 36.0087 65.1155 36.6264 64.8031 37.173L64.5341 37.6214C64.2269 38.1704 63.7736 38.6236 63.2247 38.9309L51.1887 45.8905C50.6436 46.2067 50.025 46.3737 49.3949 46.3749H48.8927C48.2617 46.3808 47.6412 46.2132 47.0989 45.8905L35.045 38.9488C34.5078 38.6263 34.0581 38.1766 33.7356 37.6394L33.4845 37.1909C33.1683 36.6459 33.0013 36.0273 33.0001 35.3972V21.4956C33.0013 20.8656 33.1683 20.2469 33.4845 19.702L33.7356 19.2535C34.0499 18.71 34.5015 18.2584 35.045 17.9441L47.081 10.9844C47.626 10.6682 48.2446 10.5012 48.8747 10.5H49.3949C50.025 10.5012 50.6436 10.6682 51.1887 10.9844L63.2247 17.9262C63.7713 18.2426 64.2282 18.6933 64.552 19.2356ZM49.3949 14.0875H48.8747L38.3814 20.1503L49.1438 26.3566L59.9063 20.1503L49.3949 14.0875ZM61.4309 35.8278L50.9375 41.8907V29.4779L61.7 23.2537V35.3793L61.4309 35.8278ZM112.064 37.0476H108.344V17.4169H112.064V37.0476ZM78.5003 37.4684H82.659V30.3394H84.4671L88.884 37.4684H93.3267L88.4449 29.6162C90.6146 28.9704 92.2419 27.4981 92.2419 24.7085V24.6052C92.2419 20.7824 89.4781 19.0001 85.1128 19.0001H78.5003V37.4684ZM82.659 27.4981V22.203H85.0095C87.0242 22.203 88.1608 22.8488 88.1608 24.7343V24.8376C88.1608 26.6199 87.1018 27.4981 85.0095 27.4981H82.659ZM100.081 37.3311C103.775 37.3311 106.099 35.7038 106.538 32.785H103C102.767 33.9216 101.915 34.6706 100.184 34.6706C98.1438 34.6706 96.9298 33.3791 96.8265 31.132H106.564V30.0988C106.564 25.2685 103.465 23.228 99.9777 23.228C96.0516 23.228 93.0294 25.9918 93.0294 30.2537V30.4603C93.0294 34.774 95.9998 37.3311 100.081 37.3311ZM96.8781 28.8331C97.1622 26.9216 98.2987 25.811 99.9777 25.811C101.76 25.811 102.793 26.7925 102.922 28.8331H96.8781ZM119.199 37.3322C121.421 37.3322 122.789 36.299 123.486 34.93V37.0481H127.206V23.539H123.486V31.4688C123.486 33.4578 122.247 34.4393 120.672 34.4393C119.07 34.4393 118.32 33.561 118.32 31.7271V23.539H114.601V32.2437C114.601 35.7824 116.564 37.3322 119.199 37.3322ZM133.491 37.047H129.745V23.5379H133.491V25.6043C134.162 24.3386 135.609 23.228 137.624 23.228C139.406 23.228 140.749 23.9771 141.395 25.5785C142.48 23.9512 144.236 23.228 145.941 23.228C148.447 23.228 150.384 24.8036 150.384 28.394V37.047H146.664V28.8073C146.664 27.0766 145.889 26.3017 144.546 26.3017C143.1 26.3017 141.938 27.2317 141.938 29.0656V37.047H138.218V28.8073C138.218 27.0766 137.417 26.3017 136.1 26.3017C134.653 26.3017 133.491 27.2317 133.491 29.0656V37.047ZM159.032 37.3311C162.726 37.3311 165.051 35.7038 165.49 32.785H161.951C161.718 33.9216 160.866 34.6706 159.135 34.6706C157.095 34.6706 155.881 33.3791 155.778 31.132H165.516V30.0988C165.516 25.2685 162.416 23.228 158.929 23.228C155.003 23.228 151.981 25.9918 151.981 30.2537V30.4603C151.981 34.774 154.951 37.3311 159.032 37.3311ZM155.83 28.8331C156.114 26.9216 157.251 25.811 158.929 25.811C160.711 25.811 161.745 26.7925 161.874 28.8331H155.83Z" fill="black"/>
</svg>
