<svg width="267" height="58" viewBox="0 0 267 58" fill="none" xmlns="http://www.w3.org/2000/svg">
<path d="M111.369 4.23262C113.246 3.97419 115.141 3.84559 117.038 3.84806C120.87 3.84806 123.599 4.67159 125.406 6.23209C127.214 7.79259 128.316 10.0085 128.316 13.101C128.316 16.1936 127.272 18.7804 125.346 20.54C123.418 22.2983 120.226 23.2937 116.217 23.2937C114.599 23.3024 112.983 23.227 111.374 23.0662L111.369 4.23262ZM114.036 21.1434C114.929 21.2572 115.831 21.3042 116.733 21.2831C122.432 21.2831 125.528 18.3315 125.528 13.1653C125.558 8.64951 122.799 5.78447 117.16 5.78447C116.111 5.76963 115.061 5.85371 114.029 6.03796L114.036 21.1434Z" fill="white"/>
<path d="M134.691 5.51102C134.722 6.36422 134.049 7.04555 132.975 7.04555C132.088 7.05668 131.361 6.40008 131.349 5.58026C131.349 5.558 131.349 5.53451 131.35 5.51225C131.329 4.67018 132.047 3.97154 132.956 3.95175C132.983 3.95175 133.011 3.95175 133.037 3.95175C133.92 3.92207 134.661 4.56136 134.693 5.37871C134.694 5.42075 134.694 5.4665 134.691 5.51102ZM131.689 23.113V9.37147H134.386V23.113H131.689Z" fill="white"/>
<path d="M151.64 9.37149C151.58 10.3644 151.517 11.4736 151.517 13.1479V21.1198C151.517 24.2606 150.845 26.1933 149.404 27.4013C147.962 28.6502 145.878 29.0472 144.008 29.0472C142.231 29.0472 140.27 28.6515 139.074 27.912L139.749 26.0102C141.067 26.7311 142.574 27.1046 144.105 27.0873C146.862 27.0873 148.886 25.7518 148.886 22.2895V20.7599H148.823C147.997 22.0385 146.403 23.0599 144.105 23.0599C140.428 23.0599 137.791 20.1602 137.791 16.3604C137.791 11.7048 141.07 9.06483 144.474 9.06483C147.048 9.06483 148.456 10.3137 149.101 11.4489H149.161L149.284 9.37644L151.64 9.37149ZM148.851 14.7949C148.866 14.4116 148.815 14.0283 148.698 13.6598C148.208 12.2106 146.89 11.0198 144.929 11.0198C142.355 11.0198 140.516 13.0341 140.516 16.2144C140.516 18.9101 141.987 21.1544 144.897 21.1544C146.611 21.1445 148.122 20.112 148.638 18.5985C148.783 18.1669 148.857 17.7168 148.851 17.2655V14.7949Z" fill="white"/>
<path d="M158.812 5.51088C158.842 6.36409 158.167 7.04542 157.095 7.04542C156.208 7.05655 155.481 6.39995 155.469 5.58013C155.469 5.55787 155.469 5.53438 155.47 5.51212C155.447 4.67128 156.163 3.97264 157.071 3.95162C157.095 3.95162 157.12 3.95038 157.144 3.95162C158.028 3.917 158.774 4.55257 158.812 5.37116C158.816 5.41567 158.814 5.46266 158.812 5.51088ZM155.808 23.1129V9.37133H158.505V23.1129H155.808Z" fill="white"/>
<path d="M166.227 5.42618V9.37071H170.091V11.2725H166.227V18.6818C166.227 20.3734 166.749 21.3391 168.251 21.3391C168.779 21.3465 169.305 21.2896 169.816 21.1697L169.925 23.0542C169.158 23.3027 168.349 23.4177 167.536 23.3942C166.278 23.3942 165.266 23.0245 164.623 22.3432C163.859 21.6185 163.58 20.3845 163.58 18.7671V11.2799H161.283V9.37195H163.58V6.07907L166.227 5.42618Z" fill="white"/>
<path d="M181.338 23.1135L181.124 21.3811H181.033C179.963 22.6968 178.275 23.4535 176.497 23.4176C173.492 23.4176 171.961 21.459 171.961 19.4706C171.961 16.1703 175.143 14.3415 180.881 14.3687V14.0856C180.881 12.9504 180.545 10.9064 177.512 10.9064C176.147 10.9101 174.81 11.2638 173.648 11.9278L173.035 10.2807C174.261 9.55614 176.038 9.07266 177.908 9.07266C182.444 9.07266 183.547 11.9402 183.547 14.6939V19.8181C183.528 20.9211 183.61 22.0228 183.793 23.1135H181.338ZM180.941 16.1073C177.999 16.0516 174.657 16.5326 174.657 19.2023C174.657 20.8209 175.82 21.5863 177.2 21.5863C178.809 21.6259 180.26 20.6948 180.786 19.2864C180.881 19.0304 180.933 18.7621 180.94 18.4913V16.1073H180.941Z" fill="white"/>
<path d="M187.897 2.95329H190.594V23.1112H187.897V2.95329Z" fill="white"/>
<path d="M201.719 4.23262C203.596 3.97419 205.491 3.84559 207.388 3.84806C211.22 3.84806 213.949 4.67159 215.756 6.23209C217.564 7.79259 218.666 10.0085 218.666 13.101C218.666 16.1936 217.624 18.7804 215.693 20.54C213.763 22.2983 210.576 23.2937 206.565 23.2937C204.947 23.3024 203.33 23.227 201.721 23.0662L201.719 4.23262ZM204.383 21.1434C205.278 21.2572 206.18 21.3042 207.083 21.2831C212.782 21.2831 215.878 18.3315 215.878 13.1653C215.908 8.64951 213.149 5.78447 207.51 5.78447C206.461 5.76963 205.411 5.85495 204.379 6.03796L204.383 21.1434Z" fill="white"/>
<path d="M230.253 23.1135L230.04 21.3811H229.946C228.876 22.6968 227.188 23.4535 225.41 23.4176C222.408 23.4176 220.874 21.459 220.874 19.4706C220.874 16.1518 224.06 14.3341 229.794 14.3613V14.0856C229.794 12.9504 229.455 10.9064 226.422 10.9064C225.058 10.9101 223.72 11.2638 222.558 11.9278L221.946 10.2807C223.171 9.55614 224.951 9.07266 226.821 9.07266C231.357 9.07266 232.46 11.9402 232.46 14.6939V19.8181C232.44 20.9211 232.522 22.0241 232.706 23.1135H230.253ZM229.854 16.1073C226.912 16.0516 223.57 16.5326 223.57 19.2023C223.57 20.8209 224.736 21.5863 226.114 21.5863C227.722 21.6272 229.175 20.696 229.699 19.2864C229.795 19.0304 229.847 18.7621 229.853 18.4913V16.1073H229.854Z" fill="white"/>
<path d="M239.937 5.42618V9.37071H243.798V11.2725H239.937V18.6818C239.937 20.3734 240.459 21.3391 241.958 21.3391C242.485 21.3465 243.011 21.2896 243.523 21.1697L243.646 23.0418C242.878 23.2903 242.066 23.4053 241.253 23.3818C239.996 23.3818 238.986 23.0121 238.343 22.3308C237.577 21.6062 237.299 20.3721 237.299 18.7547V11.2675H235.001V9.37195H237.299V6.07907L239.937 5.42618Z" fill="white"/>
<path d="M255.047 23.1135L254.833 21.3811H254.74C253.669 22.6968 251.981 23.4535 250.203 23.4176C247.201 23.4176 245.667 21.459 245.667 19.4706C245.667 16.1518 248.854 14.3341 254.587 14.3613V14.0856C254.587 12.9504 254.248 10.9064 251.215 10.9064C249.851 10.9101 248.513 11.2638 247.352 11.9278L246.739 10.2807C247.964 9.55614 249.744 9.07266 251.614 9.07266C256.151 9.07266 257.253 11.9402 257.253 14.6939V19.8181C257.233 20.9211 257.315 22.0241 257.499 23.1135H255.047ZM254.647 16.1073C251.705 16.0516 248.364 16.5326 248.364 19.2023C248.364 20.8209 249.529 21.5863 250.909 21.5863C252.518 21.6259 253.968 20.6948 254.493 19.2864C254.589 19.0304 254.641 18.7621 254.646 18.4913V16.1073H254.647Z" fill="white"/>
<path d="M125.805 50.8757C124.824 51.3295 122.863 51.7845 120.349 51.7845C114.527 51.7845 110.143 48.3779 110.143 42.1037C110.143 36.1127 114.527 32.0532 120.934 32.0532C123.508 32.0532 125.131 32.5626 125.837 32.9039L125.192 34.9207C123.881 34.3729 122.457 34.1009 121.019 34.1256C116.176 34.1256 112.957 36.9907 112.957 42.0159C112.957 46.6999 115.87 49.7109 120.896 49.7109C122.521 49.7109 124.175 49.3992 125.247 48.9158L125.805 50.8757Z" fill="white"/>
<path d="M142.141 44.5148C142.141 49.5883 138.34 51.8104 134.754 51.8104C130.74 51.8104 127.644 49.0851 127.644 44.7411C127.644 40.1511 130.891 37.4481 135 37.4481C139.258 37.4481 142.141 40.3131 142.141 44.5148ZM130.373 44.657C130.373 47.6668 132.24 49.9383 134.877 49.9383C137.451 49.9383 139.381 47.6964 139.381 44.6014C139.381 42.273 138.126 39.3202 134.948 39.3202C131.769 39.3202 130.373 42.0455 130.373 44.657Z" fill="white"/>
<path d="M145.541 41.4779C145.541 40.0596 145.511 38.8948 145.418 37.7597H147.811L147.962 40.0312H148.016C148.752 38.7242 150.469 37.4481 152.92 37.4481C154.973 37.4481 158.16 38.5832 158.16 43.2944V51.5087H155.471V43.58C155.471 41.3642 154.585 39.5193 152.039 39.5193C149.892 39.5996 148.207 41.2504 148.238 43.24V51.5H145.541V41.4779Z" fill="white"/>
<path d="M162.185 48.9446C163.257 49.5641 164.489 49.9078 165.754 49.9375C167.715 49.9375 168.622 49.0287 168.622 47.8935C168.622 46.7003 167.856 46.0474 165.866 45.3661C163.197 44.4869 161.953 43.1242 161.953 41.4759C161.953 39.2625 163.883 37.4461 167.07 37.4461C168.346 37.4325 169.604 37.7255 170.721 38.2968L170.048 40.1133C169.135 39.5927 168.084 39.3182 167.012 39.3182C165.418 39.3182 164.532 40.1714 164.532 41.1928C164.532 42.3279 165.418 42.8386 167.351 43.5187C169.925 44.4275 171.243 45.6208 171.243 47.6648C171.243 50.0809 169.219 51.7713 165.695 51.7713C164.24 51.796 162.802 51.4733 161.522 50.834L162.185 48.9446Z" fill="white"/>
<path d="M187.102 47.7533C187.102 49.1741 187.133 50.423 187.225 51.5H184.832L184.679 49.2582H184.619C183.6 50.8657 181.727 51.8413 179.715 51.8116C177.386 51.8116 174.596 50.6208 174.596 45.7934V37.7609H177.295V45.3681C177.295 47.9796 178.153 49.7404 180.605 49.7404C182.174 49.712 183.575 48.8167 184.16 47.4677C184.322 47.0596 184.405 46.6268 184.405 46.1916V37.7597H187.102V47.7533Z" fill="white"/>
<path d="M191.574 31.3439H194.271V51.4993H191.574V31.3439Z" fill="white"/>
<path d="M202.058 33.8045V37.7515H205.922V39.6533H202.061V47.0626C202.061 48.7653 202.583 49.7323 204.082 49.7323C204.61 49.7385 205.136 49.6816 205.647 49.5604L205.77 51.435C205.002 51.6835 204.19 51.7985 203.377 51.775C202.12 51.775 201.111 51.4053 200.467 50.724C199.701 49.9845 199.423 48.7653 199.423 47.1454V39.6558H197.126V37.754H199.423V34.4636L202.058 33.8045Z" fill="white"/>
<path d="M217.167 51.4984L216.954 49.766H216.86C215.792 51.0854 214.103 51.8459 212.324 51.81C209.321 51.81 207.788 49.8526 207.788 47.8655C207.788 44.5441 210.974 42.7264 216.708 42.7561V42.4705C216.708 41.3354 216.369 39.2914 213.336 39.2914C211.971 39.2963 210.635 39.65 209.472 40.3127L208.86 38.6669C210.085 37.9275 211.865 37.4588 213.735 37.4588C218.271 37.4588 219.374 40.3239 219.374 43.0776V48.2166C219.354 49.3184 219.435 50.4201 219.62 51.5095L217.167 51.4984ZM216.768 44.4922C213.826 44.4341 210.484 44.9176 210.484 47.5749C210.484 49.191 211.65 49.9589 213.027 49.9589C214.635 50.001 216.086 49.0723 216.613 47.6664C216.709 47.4104 216.761 47.1421 216.767 46.8713L216.768 44.4922Z" fill="white"/>
<path d="M223.723 41.4779C223.723 40.0596 223.695 38.8948 223.601 37.7597H226.002L226.156 40.0312H226.216C226.951 38.7242 228.668 37.4481 231.119 37.4481C233.175 37.4481 236.362 38.5832 236.362 43.2944V51.5087H233.654V43.58C233.654 41.3642 232.765 39.5193 230.219 39.5193C228.073 39.5996 226.388 41.2504 226.419 43.24V51.5H223.722V41.4779H223.723Z" fill="white"/>
<path d="M251.303 50.99C250.599 51.33 249.034 51.7851 247.042 51.7851C242.569 51.7851 239.656 48.9732 239.656 44.7789C239.656 40.5846 242.786 37.4833 247.627 37.4833C248.914 37.4697 250.187 37.7121 251.365 38.1931L250.752 40.1258C250.11 39.7858 249.098 39.4729 247.623 39.4729C244.232 39.4729 242.38 41.7988 242.38 44.6676C242.38 47.8467 244.587 49.8066 247.529 49.8066C248.675 49.8116 249.807 49.5778 250.842 49.1253L251.303 50.99Z" fill="white"/>
<path d="M255.998 37.7602L259.245 45.8842C259.581 46.7955 259.95 47.8725 260.194 48.6961H260.257C260.533 47.8725 260.839 46.8215 261.206 45.8285L264.148 37.7664H267L262.955 47.5609C261.025 52.2721 259.706 54.6858 257.866 56.161C256.934 56.9585 255.793 57.5162 254.556 57.7796L253.884 55.6775C254.742 55.4166 255.539 55.0073 256.231 54.4694C257.21 53.7188 257.987 52.7667 258.5 51.6885C258.608 51.503 258.682 51.3002 258.714 51.0912C258.69 50.8662 258.628 50.6461 258.531 50.4383L253.053 37.7762L255.998 37.7602Z" fill="white"/>
<path d="M111.369 4.23262C113.246 3.97419 115.141 3.84559 117.038 3.84806C120.87 3.84806 123.599 4.67159 125.406 6.23209C127.214 7.79259 128.316 10.0085 128.316 13.101C128.316 16.1936 127.272 18.7804 125.346 20.54C123.418 22.2983 120.226 23.2937 116.217 23.2937C114.599 23.3024 112.983 23.227 111.374 23.0662L111.369 4.23262ZM114.036 21.1434C114.929 21.2572 115.831 21.3042 116.733 21.2831C122.432 21.2831 125.528 18.3315 125.528 13.1653C125.558 8.64951 122.799 5.78447 117.16 5.78447C116.111 5.76963 115.061 5.85371 114.029 6.03796L114.036 21.1434Z" fill="white"/>
<path d="M134.691 5.51102C134.722 6.36422 134.049 7.04555 132.975 7.04555C132.088 7.05668 131.361 6.40008 131.349 5.58026C131.349 5.558 131.349 5.53451 131.35 5.51225C131.329 4.67018 132.047 3.97154 132.956 3.95175C132.983 3.95175 133.011 3.95175 133.037 3.95175C133.92 3.92207 134.661 4.56136 134.693 5.37871C134.694 5.42075 134.694 5.4665 134.691 5.51102ZM131.689 23.113V9.37147H134.386V23.113H131.689Z" fill="white"/>
<path d="M151.64 9.37149C151.58 10.3644 151.517 11.4736 151.517 13.1479V21.1198C151.517 24.2606 150.845 26.1933 149.404 27.4013C147.962 28.6502 145.878 29.0472 144.008 29.0472C142.231 29.0472 140.27 28.6515 139.074 27.912L139.749 26.0102C141.067 26.7311 142.574 27.1046 144.105 27.0873C146.862 27.0873 148.886 25.7518 148.886 22.2895V20.7599H148.823C147.997 22.0385 146.403 23.0599 144.105 23.0599C140.428 23.0599 137.791 20.1602 137.791 16.3604C137.791 11.7048 141.07 9.06483 144.474 9.06483C147.048 9.06483 148.456 10.3137 149.101 11.4489H149.161L149.284 9.37644L151.64 9.37149ZM148.851 14.7949C148.866 14.4116 148.815 14.0283 148.698 13.6598C148.208 12.2106 146.89 11.0198 144.929 11.0198C142.355 11.0198 140.516 13.0341 140.516 16.2144C140.516 18.9101 141.987 21.1544 144.897 21.1544C146.611 21.1445 148.122 20.112 148.638 18.5985C148.783 18.1669 148.857 17.7168 148.851 17.2655V14.7949Z" fill="white"/>
<path d="M158.812 5.51088C158.842 6.36409 158.167 7.04542 157.095 7.04542C156.208 7.05655 155.481 6.39995 155.469 5.58013C155.469 5.55787 155.469 5.53438 155.47 5.51212C155.447 4.67128 156.163 3.97264 157.071 3.95162C157.095 3.95162 157.12 3.95038 157.144 3.95162C158.028 3.917 158.774 4.55257 158.812 5.37116C158.816 5.41567 158.814 5.46266 158.812 5.51088ZM155.808 23.1129V9.37133H158.505V23.1129H155.808Z" fill="white"/>
<path d="M166.227 5.42618V9.37071H170.091V11.2725H166.227V18.6818C166.227 20.3734 166.749 21.3391 168.251 21.3391C168.779 21.3465 169.305 21.2896 169.816 21.1697L169.925 23.0542C169.158 23.3027 168.349 23.4177 167.536 23.3942C166.278 23.3942 165.266 23.0245 164.623 22.3432C163.859 21.6185 163.58 20.3845 163.58 18.7671V11.2799H161.283V9.37195H163.58V6.07907L166.227 5.42618Z" fill="white"/>
<path d="M181.338 23.1135L181.124 21.3811H181.033C179.963 22.6968 178.275 23.4535 176.497 23.4176C173.492 23.4176 171.961 21.459 171.961 19.4706C171.961 16.1703 175.143 14.3415 180.881 14.3687V14.0856C180.881 12.9504 180.545 10.9064 177.512 10.9064C176.147 10.9101 174.81 11.2638 173.648 11.9278L173.035 10.2807C174.261 9.55614 176.038 9.07266 177.908 9.07266C182.444 9.07266 183.547 11.9402 183.547 14.6939V19.8181C183.528 20.9211 183.61 22.0228 183.793 23.1135H181.338ZM180.941 16.1073C177.999 16.0516 174.657 16.5326 174.657 19.2023C174.657 20.8209 175.82 21.5863 177.2 21.5863C178.809 21.6259 180.26 20.6948 180.786 19.2864C180.881 19.0304 180.933 18.7621 180.94 18.4913V16.1073H180.941Z" fill="white"/>
<path d="M187.897 2.95329H190.594V23.1112H187.897V2.95329Z" fill="white"/>
<path d="M201.719 4.23262C203.596 3.97419 205.491 3.84559 207.388 3.84806C211.22 3.84806 213.949 4.67159 215.756 6.23209C217.564 7.79259 218.666 10.0085 218.666 13.101C218.666 16.1936 217.624 18.7804 215.693 20.54C213.763 22.2983 210.576 23.2937 206.565 23.2937C204.947 23.3024 203.33 23.227 201.721 23.0662L201.719 4.23262ZM204.383 21.1434C205.278 21.2572 206.18 21.3042 207.083 21.2831C212.782 21.2831 215.878 18.3315 215.878 13.1653C215.908 8.64951 213.149 5.78447 207.51 5.78447C206.461 5.76963 205.411 5.85495 204.379 6.03796L204.383 21.1434Z" fill="white"/>
<path d="M230.253 23.1135L230.04 21.3811H229.946C228.876 22.6968 227.188 23.4535 225.41 23.4176C222.408 23.4176 220.874 21.459 220.874 19.4706C220.874 16.1518 224.06 14.3341 229.794 14.3613V14.0856C229.794 12.9504 229.455 10.9064 226.422 10.9064C225.058 10.9101 223.72 11.2638 222.558 11.9278L221.946 10.2807C223.171 9.55614 224.951 9.07266 226.821 9.07266C231.357 9.07266 232.46 11.9402 232.46 14.6939V19.8181C232.44 20.9211 232.522 22.0241 232.706 23.1135H230.253ZM229.854 16.1073C226.912 16.0516 223.57 16.5326 223.57 19.2023C223.57 20.8209 224.736 21.5863 226.114 21.5863C227.722 21.6272 229.175 20.696 229.699 19.2864C229.795 19.0304 229.847 18.7621 229.853 18.4913V16.1073H229.854Z" fill="white"/>
<path d="M239.937 5.42618V9.37071H243.798V11.2725H239.937V18.6818C239.937 20.3734 240.459 21.3391 241.958 21.3391C242.485 21.3465 243.011 21.2896 243.523 21.1697L243.646 23.0418C242.878 23.2903 242.066 23.4053 241.253 23.3818C239.996 23.3818 238.986 23.0121 238.343 22.3308C237.577 21.6062 237.299 20.3721 237.299 18.7547V11.2675H235.001V9.37195H237.299V6.07907L239.937 5.42618Z" fill="white"/>
<path d="M255.047 23.1135L254.833 21.3811H254.74C253.669 22.6968 251.981 23.4535 250.203 23.4176C247.201 23.4176 245.667 21.459 245.667 19.4706C245.667 16.1518 248.854 14.3341 254.587 14.3613V14.0856C254.587 12.9504 254.248 10.9064 251.215 10.9064C249.851 10.9101 248.513 11.2638 247.352 11.9278L246.739 10.2807C247.964 9.55614 249.744 9.07266 251.614 9.07266C256.151 9.07266 257.253 11.9402 257.253 14.6939V19.8181C257.233 20.9211 257.315 22.0241 257.499 23.1135H255.047ZM254.647 16.1073C251.705 16.0516 248.364 16.5326 248.364 19.2023C248.364 20.8209 249.529 21.5863 250.909 21.5863C252.518 21.6259 253.968 20.6948 254.493 19.2864C254.589 19.0304 254.641 18.7621 254.646 18.4913V16.1073H254.647Z" fill="white"/>
<path d="M125.805 50.8757C124.824 51.3295 122.863 51.7845 120.349 51.7845C114.527 51.7845 110.143 48.3779 110.143 42.1037C110.143 36.1127 114.527 32.0532 120.934 32.0532C123.508 32.0532 125.131 32.5626 125.837 32.9039L125.192 34.9207C123.881 34.3729 122.457 34.1009 121.019 34.1256C116.176 34.1256 112.957 36.9907 112.957 42.0159C112.957 46.6999 115.87 49.7109 120.896 49.7109C122.521 49.7109 124.175 49.3992 125.247 48.9158L125.805 50.8757Z" fill="white"/>
<path d="M142.141 44.5148C142.141 49.5883 138.34 51.8104 134.754 51.8104C130.74 51.8104 127.644 49.0851 127.644 44.7411C127.644 40.1511 130.891 37.4481 135 37.4481C139.258 37.4481 142.141 40.3131 142.141 44.5148ZM130.373 44.657C130.373 47.6668 132.24 49.9383 134.877 49.9383C137.451 49.9383 139.381 47.6964 139.381 44.6014C139.381 42.273 138.126 39.3202 134.948 39.3202C131.769 39.3202 130.373 42.0455 130.373 44.657Z" fill="white"/>
<path d="M145.541 41.4779C145.541 40.0596 145.511 38.8948 145.418 37.7597H147.811L147.962 40.0312H148.016C148.752 38.7242 150.469 37.4481 152.92 37.4481C154.973 37.4481 158.16 38.5832 158.16 43.2944V51.5087H155.471V43.58C155.471 41.3642 154.585 39.5193 152.039 39.5193C149.892 39.5996 148.207 41.2504 148.238 43.24V51.5H145.541V41.4779Z" fill="white"/>
<path d="M162.185 48.9446C163.257 49.5641 164.489 49.9078 165.754 49.9375C167.715 49.9375 168.622 49.0287 168.622 47.8935C168.622 46.7003 167.856 46.0474 165.866 45.3661C163.197 44.4869 161.953 43.1242 161.953 41.4759C161.953 39.2625 163.883 37.4461 167.07 37.4461C168.346 37.4325 169.604 37.7255 170.721 38.2968L170.048 40.1133C169.135 39.5927 168.084 39.3182 167.012 39.3182C165.418 39.3182 164.532 40.1714 164.532 41.1928C164.532 42.3279 165.418 42.8386 167.351 43.5187C169.925 44.4275 171.243 45.6208 171.243 47.6648C171.243 50.0809 169.219 51.7713 165.695 51.7713C164.24 51.796 162.802 51.4733 161.522 50.834L162.185 48.9446Z" fill="white"/>
<path d="M187.102 47.7533C187.102 49.1741 187.133 50.423 187.225 51.5H184.832L184.679 49.2582H184.619C183.6 50.8657 181.727 51.8413 179.715 51.8116C177.386 51.8116 174.596 50.6208 174.596 45.7934V37.7609H177.295V45.3681C177.295 47.9796 178.153 49.7404 180.605 49.7404C182.174 49.712 183.575 48.8167 184.16 47.4677C184.322 47.0596 184.405 46.6268 184.405 46.1916V37.7597H187.102V47.7533Z" fill="white"/>
<path d="M191.574 31.3439H194.271V51.4993H191.574V31.3439Z" fill="white"/>
<path d="M202.058 33.8045V37.7515H205.922V39.6533H202.061V47.0626C202.061 48.7653 202.583 49.7323 204.082 49.7323C204.61 49.7385 205.136 49.6816 205.647 49.5604L205.77 51.435C205.002 51.6835 204.19 51.7985 203.377 51.775C202.12 51.775 201.111 51.4053 200.467 50.724C199.701 49.9845 199.423 48.7653 199.423 47.1454V39.6558H197.126V37.754H199.423V34.4636L202.058 33.8045Z" fill="white"/>
<path d="M217.167 51.4984L216.954 49.766H216.86C215.792 51.0854 214.103 51.8459 212.324 51.81C209.321 51.81 207.788 49.8526 207.788 47.8655C207.788 44.5441 210.974 42.7264 216.708 42.7561V42.4705C216.708 41.3354 216.369 39.2914 213.336 39.2914C211.971 39.2963 210.635 39.65 209.472 40.3127L208.86 38.6669C210.085 37.9275 211.865 37.4588 213.735 37.4588C218.271 37.4588 219.374 40.3239 219.374 43.0776V48.2166C219.354 49.3184 219.435 50.4201 219.62 51.5095L217.167 51.4984ZM216.768 44.4922C213.826 44.4341 210.484 44.9176 210.484 47.5749C210.484 49.191 211.65 49.9589 213.027 49.9589C214.635 50.001 216.086 49.0723 216.613 47.6664C216.709 47.4104 216.761 47.1421 216.767 46.8713L216.768 44.4922Z" fill="white"/>
<path d="M223.723 41.4779C223.723 40.0596 223.695 38.8948 223.601 37.7597H226.002L226.156 40.0312H226.216C226.951 38.7242 228.668 37.4481 231.119 37.4481C233.175 37.4481 236.362 38.5832 236.362 43.2944V51.5087H233.654V43.58C233.654 41.3642 232.765 39.5193 230.219 39.5193C228.073 39.5996 226.388 41.2504 226.419 43.24V51.5H223.722V41.4779H223.723Z" fill="white"/>
<path d="M251.303 50.99C250.599 51.33 249.034 51.7851 247.042 51.7851C242.569 51.7851 239.656 48.9732 239.656 44.7789C239.656 40.5846 242.786 37.4833 247.627 37.4833C248.914 37.4697 250.187 37.7121 251.365 38.1931L250.752 40.1258C250.11 39.7858 249.098 39.4729 247.623 39.4729C244.232 39.4729 242.38 41.7988 242.38 44.6676C242.38 47.8467 244.587 49.8066 247.529 49.8066C248.675 49.8116 249.807 49.5778 250.842 49.1253L251.303 50.99Z" fill="white"/>
<path d="M255.998 37.7602L259.245 45.8842C259.581 46.7955 259.95 47.8725 260.194 48.6961H260.257C260.533 47.8725 260.839 46.8215 261.206 45.8285L264.148 37.7664H267L262.955 47.5609C261.025 52.2721 259.706 54.6858 257.866 56.161C256.934 56.9585 255.793 57.5162 254.556 57.7796L253.884 55.6775C254.742 55.4166 255.539 55.0073 256.231 54.4694C257.21 53.7188 257.987 52.7667 258.5 51.6885C258.608 51.503 258.682 51.3002 258.714 51.0912C258.69 50.8662 258.628 50.6461 258.531 50.4383L253.053 37.7762L255.998 37.7602Z" fill="white"/>
<path d="M65.6743 35.0927C58.4547 35.0915 52.6033 29.6693 52.6033 22.9822C52.6047 16.295 58.4587 10.8753 65.6783 10.8753C70.9689 10.8765 75.7376 13.8306 77.7574 18.36H88.9861C86.7339 7.69987 76.6507 0.00618265 64.9227 0H46.3075L42.181 11.9783V11.9152H23.7647C10.7124 11.8484 0.0724582 21.5948 0.000368217 33.6843C-0.0717218 45.7739 10.4507 55.629 23.503 55.6958H39.3068L42.5254 45.4549H65.163C76.5653 45.3411 86.3802 37.9689 88.8566 27.6599H77.7347C75.6988 32.1622 70.9449 35.0927 65.6743 35.0927ZM31.6465 44.5299H23.9049C17.5116 44.4817 12.3718 39.6419 12.4252 33.7202C12.4746 28.11 17.1858 23.4842 23.2294 23.1108H38.3816L31.6465 44.5299Z" fill="url(#paint0_linear_145_236)"/>
<defs>
<linearGradient id="paint0_linear_145_236" x1="0.128528" y1="27.8478" x2="88.9866" y2="27.8478" gradientUnits="userSpaceOnUse">
<stop offset="1" stop-color="white"/>
</linearGradient>
</defs>
</svg>
