<svg width="39" height="41" viewBox="0 0 39 41" fill="none" xmlns="http://www.w3.org/2000/svg">
<path d="M15.1438 35.7943C15.8321 35.7943 16.5348 35.7728 17.2518 35.7298C17.6104 36.6763 18.0549 37.5582 18.5855 38.3757C18.0119 38.433 17.4383 38.476 16.8646 38.5047C16.291 38.5334 15.7174 38.5477 15.1438 38.5477C13.2221 38.5477 11.3435 38.39 9.50787 38.0745C8.97727 37.9885 8.37496 37.8666 7.70095 37.7088C7.02693 37.5511 6.33858 37.3431 5.63589 37.085C4.93319 36.8269 4.24484 36.5329 3.57083 36.203C2.89682 35.8732 2.29451 35.4788 1.7639 35.0199C1.2333 34.561 0.810248 34.0663 0.494753 33.5357C0.179258 33.0051 0.0143407 32.3813 0 31.6642V6.88353C0 6.2382 0.136236 5.66457 0.408709 5.16265C0.681182 4.66072 1.04687 4.18748 1.50577 3.74292C1.99335 3.25533 2.57415 2.82511 3.24816 2.45226C3.92218 2.0794 4.66072 1.75673 5.4638 1.48426C6.26688 1.21179 7.09147 0.975166 7.93757 0.774397C8.78367 0.573627 9.63694 0.42305 10.4974 0.322665C11.3578 0.222281 12.1752 0.143407 12.9496 0.0860441C13.724 0.0286814 14.4554 0 15.1438 0C16.1763 0 17.3164 0.0573627 18.564 0.172088C19.8116 0.286814 21.0665 0.480413 22.3284 0.752886C23.5904 1.02536 24.7879 1.41256 25.9208 1.91448C27.0537 2.4164 28.0073 3.02588 28.7817 3.74292C29.2263 4.1588 29.5848 4.63204 29.8573 5.16265C30.1298 5.69325 30.2732 6.26688 30.2875 6.88353V19.1878H27.5341V10.9706C26.6737 11.5012 25.7343 11.9458 24.7162 12.3043C23.698 12.6628 22.6439 12.9496 21.554 13.1647C20.4642 13.3799 19.3743 13.5304 18.2844 13.6165C17.1945 13.7025 16.1476 13.7527 15.1438 13.7671C14.1543 13.7671 13.1146 13.724 12.0247 13.638C10.9348 13.5519 9.83771 13.3942 8.73347 13.1647C7.62924 12.9353 6.5752 12.6485 5.57135 12.3043C4.56751 11.9601 3.62819 11.5156 2.75341 10.9706V31.6642C2.75341 31.951 2.8538 32.2163 3.05456 32.4601C3.25533 32.7039 3.46327 32.9047 3.67838 33.0624C4.3524 33.593 5.16982 34.0304 6.13064 34.3746C7.09147 34.7188 8.10966 34.9984 9.18521 35.2135C10.2608 35.4286 11.3148 35.5792 12.3473 35.6653C13.3799 35.7513 14.312 35.7943 15.1438 35.7943ZM15.1438 2.75341C14.4124 2.75341 13.6523 2.77492 12.8636 2.81794C12.0749 2.86097 11.2718 2.94701 10.4544 3.07608C9.63694 3.20514 8.8482 3.36289 8.08814 3.54932C7.32809 3.73575 6.60388 3.97237 5.91553 4.25918C5.70042 4.34523 5.41361 4.47429 5.05509 4.64638C4.69657 4.81847 4.34523 5.02641 4.00105 5.2702C3.65687 5.51399 3.36289 5.76495 3.1191 6.02309C2.87531 6.28122 2.75341 6.56803 2.75341 6.88353C2.75341 6.99825 2.77492 7.10581 2.81794 7.20619C2.86097 7.30658 2.91833 7.40696 2.99003 7.50735C3.30553 7.96625 3.75726 8.37496 4.34523 8.73347C4.93319 9.09199 5.59287 9.40032 6.32424 9.65845C7.05561 9.91658 7.83001 10.1317 8.64743 10.3038C9.46485 10.4759 10.2751 10.6121 11.0782 10.7125C11.8813 10.8129 12.627 10.8917 13.3153 10.9491C14.0037 11.0065 14.6132 11.028 15.1438 11.0136C15.6457 11.0136 16.248 10.9921 16.9507 10.9491C17.6534 10.9061 18.4063 10.8344 19.2093 10.734C20.0124 10.6336 20.8155 10.4902 21.6186 10.3038C22.4217 10.1173 23.2032 9.90224 23.9633 9.65845C24.7233 9.41466 25.3758 9.1135 25.9208 8.75499C26.4657 8.39647 26.9246 7.98059 27.2975 7.50735C27.3692 7.40696 27.4265 7.30658 27.4696 7.20619C27.5126 7.10581 27.5341 6.99825 27.5341 6.88353C27.5341 6.58237 27.4122 6.29556 27.1684 6.02309C26.9246 5.75061 26.6306 5.49965 26.2865 5.2702C25.9423 5.04075 25.5909 4.83998 25.2324 4.66789C24.8739 4.4958 24.5871 4.35957 24.372 4.25918C23.698 3.98671 22.9738 3.75726 22.1994 3.57083C21.425 3.3844 20.6362 3.22665 19.8332 3.09759C19.0301 2.96852 18.2342 2.88248 17.4454 2.83945C16.6567 2.79643 15.8895 2.76775 15.1438 2.75341ZM35.6653 30.266C35.7513 30.6962 35.7943 31.1336 35.7943 31.5782C35.7943 32.0227 35.7513 32.4601 35.6653 32.8904L38.3326 33.9874L37.2786 36.5472L34.6112 35.4286C34.1093 36.16 33.4927 36.7767 32.7613 37.2786L33.8799 39.946L31.32 41L30.223 38.3326C29.7928 38.4187 29.3554 38.4617 28.9108 38.4617C28.4663 38.4617 28.0289 38.4187 27.5986 38.3326L26.5016 41L23.9418 39.946L25.0603 37.2786C24.329 36.7767 23.7123 36.16 23.2104 35.4286L20.543 36.5472L19.489 33.9874L22.1564 32.8904C22.0703 32.4601 22.0273 32.0227 22.0273 31.5782C22.0273 31.1336 22.0703 30.6962 22.1564 30.266L19.489 29.1689L20.543 26.6091L23.2104 27.7277C23.7123 26.9963 24.329 26.3797 25.0603 25.8778L23.9418 23.2104L26.5016 22.1564L27.5986 24.8237C28.0289 24.7377 28.4663 24.6947 28.9108 24.6947C29.3554 24.6947 29.7928 24.7377 30.223 24.8237L31.32 22.1564L33.8799 23.2104L32.7613 25.8778C33.4927 26.3797 34.1093 26.9963 34.6112 27.7277L37.2786 26.6091L38.3326 29.1689L35.6653 30.266ZM28.9108 35.7083C29.4844 35.7083 30.0222 35.6007 30.5241 35.3856C31.0261 35.1705 31.4635 34.8765 31.8363 34.5037C32.2092 34.1308 32.5032 33.6934 32.7183 33.1915C32.9334 32.6896 33.0409 32.1518 33.0409 31.5782C33.0409 31.0046 32.9334 30.4668 32.7183 29.9649C32.5032 29.4629 32.2092 29.0255 31.8363 28.6527C31.4635 28.2798 31.0261 27.9858 30.5241 27.7707C30.0222 27.5556 29.4844 27.4481 28.9108 27.4481C28.3372 27.4481 27.7994 27.5556 27.2975 27.7707C26.7956 27.9858 26.3582 28.2798 25.9853 28.6527C25.6125 29.0255 25.3185 29.4629 25.1034 29.9649C24.8883 30.4668 24.7807 31.0046 24.7807 31.5782C24.7807 32.1518 24.8883 32.6896 25.1034 33.1915C25.3185 33.6934 25.6125 34.1308 25.9853 34.5037C26.3582 34.8765 26.7956 35.1705 27.2975 35.3856C27.7994 35.6007 28.3372 35.7083 28.9108 35.7083Z" fill="#19059C"/>
</svg>
