<svg width="133" height="36" viewBox="0 0 133 36" fill="none" xmlns="http://www.w3.org/2000/svg">
<path fill-rule="evenodd" clip-rule="evenodd" d="M31.6619 8.76602L31.9139 9.21602C32.2312 9.76287 32.3988 10.3837 32.3999 11.0159V24.966C32.3947 25.5976 32.2273 26.2174 31.9139 26.766L31.6439 27.216C31.3356 27.7669 30.8808 28.2216 30.33 28.53L18.2519 35.5139C17.705 35.8311 17.0842 35.9988 16.4519 35.9999H15.9479C15.3148 36.0059 14.6922 35.8377 14.1479 35.5139L2.05199 28.548C1.51287 28.2243 1.06162 27.7731 0.738001 27.234L0.486001 26.784C0.168744 26.237 0.0011239 25.6162 0 24.984V11.0339C0.0011239 10.4017 0.168744 9.78087 0.486001 9.23402L0.738001 8.78402C1.05346 8.23857 1.50655 7.78541 2.05199 7.47001L14.1299 0.486001C14.6769 0.168761 15.2977 0.00114147 15.9299 0H16.4519C17.0842 0.00114147 17.705 0.168761 18.2519 0.486001L30.33 7.45201C30.8785 7.76952 31.3369 8.2218 31.6619 8.76602ZM16.4519 3.59992H15.9299L5.40001 9.68393L16.1999 15.9119L27 9.68393L16.4519 3.59992ZM28.5299 25.416L17.9999 31.5001V19.044L28.7999 12.7981V24.966L28.5299 25.416ZM79.3393 26.6402H75.6068V6.94102H79.3393V26.6402ZM45.6588 27.0624H49.832V19.9085H51.6464L56.0787 27.0624H60.5369L55.6381 19.1828C57.8154 18.5348 59.4483 17.0573 59.4483 14.258V14.1543C59.4483 10.3182 56.6749 8.52967 52.2944 8.52967H45.6588V27.0624ZM49.832 17.0573V11.7438H52.1907C54.2125 11.7438 55.353 12.3918 55.353 14.2839V14.3876C55.353 16.1761 54.2903 17.0573 52.1907 17.0573H49.832ZM67.3148 26.9246C71.0213 26.9246 73.3541 25.2917 73.7947 22.3627H70.2437C70.0104 23.5032 69.1551 24.2549 67.4185 24.2549C65.3708 24.2549 64.1526 22.9589 64.0489 20.7039H73.8207V19.6671C73.8207 14.82 70.7103 12.7723 67.2111 12.7723C63.2713 12.7723 60.2386 15.5458 60.2386 19.8226V20.0299C60.2386 24.3586 63.2194 26.9246 67.3148 26.9246ZM64.1007 18.397C64.3858 16.4789 65.5263 15.3643 67.2111 15.3643C68.9996 15.3643 70.0364 16.3493 70.166 18.397H64.1007ZM86.4994 26.9257C88.7288 26.9257 90.102 25.8889 90.8019 24.5152V26.6406H94.5344V13.0845H90.8019V21.0419C90.8019 23.0378 89.5576 24.0227 87.9772 24.0227C86.3703 24.0227 85.6178 23.1414 85.6178 21.3011V13.0845H81.8858V21.8195C81.8858 25.3705 83.8556 26.9257 86.4994 26.9257ZM100.841 26.6395H97.0826V13.0833H100.841V15.1569C101.515 13.8868 102.966 12.7723 104.989 12.7723C106.777 12.7723 108.125 13.524 108.773 15.131C109.862 13.498 111.624 12.7723 113.334 12.7723C115.849 12.7723 117.793 14.3534 117.793 17.9564V26.6395H114.061V18.3711C114.061 16.6344 113.283 15.8568 111.935 15.8568C110.483 15.8568 109.317 16.7899 109.317 18.6303V26.6395H105.585V18.3711C105.585 16.6344 104.781 15.8568 103.459 15.8568C102.008 15.8568 100.841 16.7899 100.841 18.6303V26.6395ZM126.471 26.9246C130.179 26.9246 132.512 25.2917 132.951 22.3627H129.401C129.167 23.5032 128.312 24.2549 126.575 24.2549C124.527 24.2549 123.31 22.9589 123.206 20.7039H132.978V19.6671C132.978 14.82 129.867 12.7723 126.368 12.7723C122.428 12.7723 119.395 15.5458 119.395 19.8226V20.0299C119.395 24.3586 122.376 26.9246 126.471 26.9246ZM123.258 18.397C123.543 16.4789 124.684 15.3643 126.368 15.3643C128.156 15.3643 129.193 16.3493 129.323 18.397H123.258Z" fill="black"/>
</svg>
