<svg width="42" height="41" viewBox="0 0 42 41" fill="none" xmlns="http://www.w3.org/2000/svg">
<path fill-rule="evenodd" clip-rule="evenodd" d="M8.28841 17.0837C8.28841 17.0837 9.21773 16.9584 10.5662 16.5985C14.1217 15.6498 20.5882 13.0748 20.5882 6.88164C20.5885 5.97792 20.4108 5.083 20.0651 4.24802C19.7194 3.41303 19.2125 2.65435 18.5735 2.01532C17.9345 1.3763 17.1758 0.86945 16.3408 0.52375C15.5058 0.17805 14.6109 0.000270187 13.7072 0.000569481H6.96959C6.05859 -0.0111514 5.15432 0.15816 4.30926 0.498679C3.4642 0.839198 2.69518 1.34415 2.04682 1.98422C1.39845 2.6243 0.883655 3.38676 0.532293 4.22737C0.18093 5.06797 0 5.96999 0 6.88107C0 7.79216 0.18093 8.69417 0.532293 9.53478C0.883655 10.3754 1.39845 11.1378 2.04682 11.7779C2.69518 12.418 3.4642 12.9229 4.30926 13.2635C5.15432 13.604 6.05859 13.7733 6.96959 13.7616H8.28841V17.0837ZM10.5662 11.4838H6.96959C6.35906 11.4934 5.75271 11.3815 5.18587 11.1545C4.61902 10.9275 4.103 10.59 3.66785 10.1616C3.2327 9.73326 2.88712 9.22261 2.65123 8.6594C2.41535 8.09619 2.29387 7.49168 2.29387 6.88107C2.29387 6.27046 2.41535 5.66595 2.65123 5.10275C2.88712 4.53954 3.2327 4.02889 3.66785 3.60053C4.103 3.17217 4.61902 2.83467 5.18587 2.60767C5.75271 2.38067 6.35906 2.26871 6.96959 2.27832H13.7072C14.3118 2.27802 14.9105 2.39688 15.4691 2.62811C16.0278 2.85935 16.5354 3.19841 16.9629 3.62593C17.3904 4.05345 17.7295 4.56103 17.9607 5.11967C18.1919 5.67831 18.3108 6.27704 18.3105 6.88164C18.3105 9.82335 16.2514 11.7822 13.4486 13.1341C12.5186 13.5765 11.5547 13.944 10.5662 14.2331V11.4838ZM9.76894 29.6113C12.2859 29.6113 14.3244 27.5727 14.3244 25.0558C14.3244 22.5389 12.2859 20.5003 9.76894 20.5003C7.25203 20.5003 5.21345 22.5389 5.21345 25.0558C5.21345 27.5727 7.25203 29.6113 9.76894 29.6113ZM12.0467 25.0558C12.0467 25.6599 11.8067 26.2392 11.3796 26.6664C10.9524 27.0936 10.373 27.3335 9.76894 27.3335C9.16485 27.3335 8.5855 27.0936 8.15834 26.6664C7.73117 26.2392 7.4912 25.6599 7.4912 25.0558C7.4912 24.4517 7.73117 23.8723 8.15834 23.4452C8.5855 23.018 9.16485 22.778 9.76894 22.778C10.373 22.778 10.9524 23.018 11.3796 23.4452C11.8067 23.8723 12.0467 24.4517 12.0467 25.0558ZM0.0885232 36.7486C0.0885232 33.5165 6.53796 31.889 9.76894 31.889C12.9999 31.889 19.4494 33.5176 19.4494 36.7486V41H0.0885232V36.7486ZM2.36627 38.7223V36.7486C2.36627 36.7372 2.36627 36.7144 2.39588 36.6575C2.43232 36.5869 2.51546 36.4627 2.6954 36.2965C3.07009 35.9491 3.69761 35.5699 4.56657 35.2202C6.30905 34.5198 8.43874 34.1668 9.76894 34.1668C11.0991 34.1668 13.23 34.5198 14.9713 35.2202C15.8391 35.5699 16.4678 35.9491 16.8425 36.2965C17.0224 36.4627 17.1056 36.5869 17.142 36.6563C17.1716 36.7133 17.1716 36.7383 17.1716 36.7475V38.7223H2.36627ZM35.963 25.0558C35.963 27.5727 33.9244 29.6113 31.4075 29.6113C28.8906 29.6113 26.852 27.5727 26.852 25.0558C26.852 22.5389 28.8906 20.5003 31.4075 20.5003C33.9244 20.5003 35.963 22.5389 35.963 25.0558ZM31.4075 27.3335C32.0116 27.3335 32.591 27.0936 33.0181 26.6664C33.4453 26.2392 33.6853 25.6599 33.6853 25.0558C33.6853 24.4517 33.4453 23.8723 33.0181 23.4452C32.591 23.018 32.0116 22.778 31.4075 22.778C30.8034 22.778 30.2241 23.018 29.7969 23.4452C29.3698 23.8723 29.1298 24.4517 29.1298 25.0558C29.1298 25.6599 29.3698 26.2392 29.7969 26.6664C30.2241 27.0936 30.8034 27.3335 31.4075 27.3335ZM21.7271 36.7486C21.7271 33.5165 28.1765 31.889 31.4075 31.889C34.6385 31.889 41.088 33.5176 41.088 36.7486V41H21.7271V36.7486ZM24.0049 38.7223V36.7486C24.0049 36.7372 24.0049 36.7144 24.0345 36.6575C24.0709 36.5869 24.1541 36.4627 24.3329 36.2965C24.7087 35.9491 25.3373 35.5699 26.2052 35.2202C27.9476 34.5198 30.0773 34.1668 31.4075 34.1668C32.7377 34.1668 34.8686 34.5198 36.6099 35.2202C37.4777 35.5699 38.1064 35.9491 38.4822 36.2965C38.661 36.4627 38.7442 36.5869 38.7806 36.6563C38.8102 36.7133 38.8102 36.7383 38.8102 36.7475V38.7223H24.0049ZM31.5214 17.6599C32.8539 18.079 33.7992 18.2225 33.7992 18.2225V14.9004H34.2069C35.1179 14.9122 36.0222 14.7429 36.8672 14.4023C37.7123 14.0618 38.4813 13.5569 39.1297 12.9168C39.778 12.2767 40.2928 11.5143 40.6442 10.6736C40.9955 9.83304 41.1765 8.93103 41.1765 8.01995C41.1765 7.10886 40.9955 6.20685 40.6442 5.36624C40.2928 4.52563 39.778 3.76317 39.1297 3.12309C38.4813 2.48302 37.7123 1.97807 36.8672 1.63755C36.0222 1.29703 35.1179 1.12772 34.2069 1.13944H29.7471C28.8433 1.13914 27.9484 1.31692 27.1134 1.66262C26.2784 2.00832 25.5198 2.51517 24.8807 3.15419C24.2417 3.79322 23.7349 4.5519 23.3892 5.38689C23.0435 6.22187 22.8657 7.1168 22.866 8.02051C22.866 14.052 28.3178 16.6532 31.5214 17.6599ZM34.2069 12.6227H31.5214V15.2569C30.7983 14.9986 30.0955 14.6864 29.4191 14.323C27.0456 13.035 25.1437 11.1023 25.1437 8.01938C25.1436 7.41487 25.2626 6.81626 25.4939 6.25775C25.7252 5.69925 26.0642 5.1918 26.4917 4.7644C26.9193 4.337 27.4268 3.99804 27.9853 3.76688C28.5439 3.53572 29.1425 3.41689 29.7471 3.41719H34.2069C34.8174 3.40758 35.4238 3.51954 35.9906 3.74654C36.5575 3.97354 37.0735 4.31105 37.5086 4.7394C37.9438 5.16776 38.2894 5.67841 38.5252 6.24162C38.7611 6.80483 38.8826 7.40934 38.8826 8.01995C38.8826 8.63056 38.7611 9.23506 38.5252 9.79827C38.2894 10.3615 37.9438 10.8721 37.5086 11.3005C37.0735 11.7288 36.5575 12.0663 35.9906 12.2933C35.4238 12.5203 34.8174 12.6323 34.2069 12.6227Z" fill="#19059C"/>
</svg>
