<svg width="24" height="22" viewBox="0 0 24 22" fill="none" xmlns="http://www.w3.org/2000/svg">
<path fill-rule="evenodd" clip-rule="evenodd" d="M4.5 2.9043C3.67157 2.9043 3 3.50577 3 4.24773V17.682C3 18.424 3.67157 19.0255 4.5 19.0255H19.5C20.3284 19.0255 21 18.424 21 17.682V4.24773C21 3.50577 20.3284 2.9043 19.5 2.9043H4.5ZM8.52076 6.48921C8.52639 7.34565 7.81061 7.87337 6.96123 7.86959C6.16107 7.86581 5.46357 7.29527 5.46779 6.49048C5.47201 5.73353 6.13998 5.12521 7.00764 5.14285C7.88795 5.16048 8.52639 5.73858 8.52076 6.48921ZM12.2797 8.96027H9.75971H9.7583V16.6266H12.4217V16.4478C12.4217 16.1075 12.4214 15.7672 12.4211 15.4268C12.4203 14.5188 12.4194 13.6098 12.4246 12.7021C12.426 12.4817 12.4372 12.2525 12.5005 12.0421C12.7381 11.2562 13.5271 10.7487 14.4074 10.8734C14.9727 10.9527 15.3467 11.2462 15.5042 11.7236C15.6013 12.022 15.6449 12.3432 15.6491 12.6543C15.6605 13.5925 15.6589 14.5308 15.6573 15.4691C15.6567 15.8003 15.6561 16.1317 15.6561 16.4629V16.6254H18.328V16.4415C18.328 16.0367 18.3278 15.632 18.3275 15.2272C18.327 14.2156 18.3264 13.204 18.3294 12.1921C18.3308 11.7348 18.276 11.284 18.1508 10.8419C17.9638 10.1844 17.5771 9.64035 16.9485 9.24744C16.5027 8.96782 16.0133 8.78772 15.4663 8.76757C15.404 8.76525 15.3412 8.76221 15.2781 8.75916C14.9984 8.74561 14.7141 8.73186 14.4467 8.78016C13.6817 8.91744 13.0096 9.23105 12.5019 9.78392C12.4429 9.84733 12.3852 9.91172 12.2991 10.0078L12.2797 10.0296V8.96027ZM5.68164 16.6291H8.33242V8.96526H5.68164V16.6291Z" fill="white"/>
</svg>
